<?xml version="1.0" encoding="utf-8" standalone="no"?>
<!DOCTYPE svg PUBLIC "-//W3C//DTD SVG 1.1//EN"
  "http://www.w3.org/Graphics/SVG/1.1/DTD/svg11.dtd">
<svg xmlns:xlink="http://www.w3.org/1999/xlink" width="792pt" height="792pt" viewBox="0 0 792 792" xmlns="http://www.w3.org/2000/svg" version="1.1">
 <metadata>
  <rdf:RDF xmlns:dc="http://purl.org/dc/elements/1.1/" xmlns:cc="http://creativecommons.org/ns#" xmlns:rdf="http://www.w3.org/1999/02/22-rdf-syntax-ns#">
   <cc:Work>
    <dc:type rdf:resource="http://purl.org/dc/dcmitype/StillImage"/>
    <dc:date>2026-10-02T15:40:45.022109</dc:date>
    <dc:format>image/svg+xml</dc:format>
    <dc:creator>
     <cc:Agent>
      <dc:title>Matplotlib v3.11.2, https://matplotlib.org/</dc:title>
     </cc:Agent>
    </dc:creator>
   </cc:Work>
  </rdf:RDF>
 </metadata>
 <defs>
  <style type="text/css">*{stroke-linejoin: round; stroke-linecap: butt}</style>
 </defs>
 <g id="figure_1">
  <g id="patch_1">
   <path d="M 0 792 
L 792 792 
L 792 0 
L 0 0 
z
" style="fill: #ffffff"/>
  </g>
  <g id="axes_1">
   <g id="patch_2">
    <path d="M 625.611467 170.57035 
L 625.611467 197.200575 
L 608.202499 214.609543 
L 575.950094 214.609543 
L 575.950094 233.704433 
L 596.467021 233.704433 
L 596.467021 246.861948 
L 527.04372 246.861948 
L 527.04372 416.187073 
L 504.848201 416.187073 
L 504.848201 436.711331 
L 571.552039 436.711331 
L 571.552039 413.988046 
L 626.036612 413.988046 
L 631.658793 418.202849 
L 631.658793 426.449202 
L 659.513143 426.449202 
L 659.513143 470.591016 
L 616.998609 470.591016 
L 616.998609 464.565681 
L 600.872407 464.565681 
L 600.872407 479.958874 
L 615.532591 479.958874 
L 615.532591 486.05018 
L 640.784758 503.415168 
L 649.251014 503.415168 
L 665.377216 519.541371 
L 689.874384 519.541371 
L 689.874384 435.245313 
L 717.420869 435.245313 
L 737.219448 455.043891 
L 737.219448 617.148876 
L 732.081053 621.42965 
L 700.561658 621.42965 
L 700.561658 590.35739 
L 673.858133 575.983079 
L 651.611303 575.983079 
L 594.597848 539.332619 
L 521.267607 539.332619 
L 475.527833 504.148177 
L 424.217189 482.157901 
L 420.552143 476.051935 
L 420.552143 431.580267 
L 489.425688 431.580267 
L 489.425688 280.411779 
L 503.660726 242.463893 
L 509.246256 242.463893 
L 509.246256 225.604681 
L 493.120054 214.31634 
L 493.120054 170.57035 
z
" clip-path="url(#p64882b325f)" style="fill: #eef2e6"/>
   </g>
   <g id="patch_3">
    <path d="M 282.013404 460.900635 
L 268.819239 460.900635 
L 268.819239 470.429754 
L 252.693036 485.089938 
L 252.693036 496.085076 
L 236.566834 496.085076 
L 236.566834 526.138453 
L 220.31602 549.609408 
L 191.64803 549.609408 
L 173.528043 562.788914 
L 141.275638 562.788914 
L 119.285362 551.060766 
L 77.503837 551.060766 
L 77.503837 515.561131 
L 89.964994 510.217494 
L 89.964994 443.308414 
L 54.780552 443.308414 
L 54.780552 430.114248 
L 105.358187 430.114248 
L 105.358187 455.036561 
L 119.93774 455.036561 
L 131.013509 442.575405 
L 171.329015 442.575405 
L 171.329015 425.115125 
L 189.654245 411.789018 
L 189.654245 386.624812 
L 262.955165 386.624812 
L 262.955165 425.716193 
L 282.013404 425.716193 
z
" clip-path="url(#p64882b325f)" style="fill: #eef2e6"/>
   </g>
   <g id="line2d_1">
    <path d="M 32.790276 647.084972 
L 106.091196 647.084972 
" clip-path="url(#p64882b325f)" style="fill: none; stroke: #000000; stroke-width: 2; stroke-linecap: square"/>
   </g>
   <g id="line2d_2">
    <path d="M 625.611467 170.57035 
L 625.611467 197.200575 
" clip-path="url(#p64882b325f)" style="fill: none; stroke: #1a202c; stroke-width: 2.6; stroke-linecap: square"/>
   </g>
   <g id="line2d_3">
    <path d="M 625.611467 197.200575 
L 608.202499 214.609543 
" clip-path="url(#p64882b325f)" style="fill: none; stroke: #1a202c; stroke-width: 2.6; stroke-linecap: square"/>
   </g>
   <g id="line2d_4">
    <path d="M 608.202499 214.609543 
L 575.950094 214.609543 
" clip-path="url(#p64882b325f)" style="fill: none; stroke: #1a202c; stroke-width: 2.6; stroke-linecap: square"/>
   </g>
   <g id="line2d_5">
    <path d="M 575.950094 214.609543 
L 575.950094 233.704433 
" clip-path="url(#p64882b325f)" style="fill: none; stroke: #1a202c; stroke-width: 2.6; stroke-linecap: square"/>
   </g>
   <g id="line2d_6">
    <path d="M 575.950094 233.704433 
L 596.467021 233.704433 
" clip-path="url(#p64882b325f)" style="fill: none; stroke: #1a202c; stroke-width: 2.6; stroke-linecap: square"/>
   </g>
   <g id="line2d_7">
    <path d="M 596.467021 233.704433 
L 596.467021 246.861948 
" clip-path="url(#p64882b325f)" style="fill: none; stroke: #1a202c; stroke-width: 2.6; stroke-linecap: square"/>
   </g>
   <g id="line2d_8">
    <path d="M 596.467021 246.861948 
L 527.04372 246.861948 
" clip-path="url(#p64882b325f)" style="fill: none; stroke: #1a202c; stroke-width: 2.6; stroke-linecap: square"/>
   </g>
   <g id="line2d_9">
    <path d="M 527.04372 246.861948 
L 527.04372 416.187073 
" clip-path="url(#p64882b325f)" style="fill: none; stroke: #1a202c; stroke-width: 2.6; stroke-linecap: square"/>
   </g>
   <g id="line2d_10">
    <path d="M 527.04372 416.187073 
L 504.848201 416.187073 
" clip-path="url(#p64882b325f)" style="fill: none; stroke: #1a202c; stroke-width: 2.6; stroke-linecap: square"/>
   </g>
   <g id="line2d_11">
    <path d="M 504.848201 416.187073 
L 504.848201 436.711331 
" clip-path="url(#p64882b325f)" style="fill: none; stroke: #1a202c; stroke-width: 2.6; stroke-linecap: square"/>
   </g>
   <g id="line2d_12">
    <path d="M 504.848201 436.711331 
L 571.552039 436.711331 
" clip-path="url(#p64882b325f)" style="fill: none; stroke: #1a202c; stroke-width: 2.6; stroke-linecap: square"/>
   </g>
   <g id="line2d_13">
    <path d="M 571.552039 436.711331 
L 571.552039 413.988046 
" clip-path="url(#p64882b325f)" style="fill: none; stroke: #1a202c; stroke-width: 2.6; stroke-linecap: square"/>
   </g>
   <g id="line2d_14">
    <path d="M 571.552039 413.988046 
L 626.036612 413.988046 
" clip-path="url(#p64882b325f)" style="fill: none; stroke: #1a202c; stroke-width: 2.6; stroke-linecap: square"/>
   </g>
   <g id="line2d_15">
    <path d="M 626.036612 413.988046 
L 631.658793 418.202849 
" clip-path="url(#p64882b325f)" style="fill: none; stroke: #1a202c; stroke-width: 2.6; stroke-linecap: square"/>
   </g>
   <g id="line2d_16">
    <path d="M 631.658793 418.202849 
L 631.658793 426.449202 
" clip-path="url(#p64882b325f)" style="fill: none; stroke: #1a202c; stroke-width: 2.6; stroke-linecap: square"/>
   </g>
   <g id="line2d_17">
    <path d="M 631.658793 426.449202 
L 659.513143 426.449202 
" clip-path="url(#p64882b325f)" style="fill: none; stroke: #1a202c; stroke-width: 2.6; stroke-linecap: square"/>
   </g>
   <g id="line2d_18">
    <path d="M 659.513143 426.449202 
L 659.513143 470.591016 
" clip-path="url(#p64882b325f)" style="fill: none; stroke: #1a202c; stroke-width: 2.6; stroke-linecap: square"/>
   </g>
   <g id="line2d_19">
    <path d="M 659.513143 470.591016 
L 616.998609 470.591016 
" clip-path="url(#p64882b325f)" style="fill: none; stroke: #1a202c; stroke-width: 2.6; stroke-linecap: square"/>
   </g>
   <g id="line2d_20">
    <path d="M 616.998609 470.591016 
L 616.998609 464.565681 
" clip-path="url(#p64882b325f)" style="fill: none; stroke: #1a202c; stroke-width: 2.6; stroke-linecap: square"/>
   </g>
   <g id="line2d_21">
    <path d="M 616.998609 464.565681 
L 600.872407 464.565681 
" clip-path="url(#p64882b325f)" style="fill: none; stroke: #1a202c; stroke-width: 2.6; stroke-linecap: square"/>
   </g>
   <g id="line2d_22">
    <path d="M 600.872407 464.565681 
L 600.872407 479.958874 
" clip-path="url(#p64882b325f)" style="fill: none; stroke: #1a202c; stroke-width: 2.6; stroke-linecap: square"/>
   </g>
   <g id="line2d_23">
    <path d="M 600.872407 479.958874 
L 615.532591 479.958874 
" clip-path="url(#p64882b325f)" style="fill: none; stroke: #1a202c; stroke-width: 2.6; stroke-linecap: square"/>
   </g>
   <g id="line2d_24">
    <path d="M 615.532591 479.958874 
L 615.532591 486.05018 
" clip-path="url(#p64882b325f)" style="fill: none; stroke: #1a202c; stroke-width: 2.6; stroke-linecap: square"/>
   </g>
   <g id="line2d_25">
    <path d="M 615.532591 486.05018 
L 640.784758 503.415168 
" clip-path="url(#p64882b325f)" style="fill: none; stroke: #1a202c; stroke-width: 2.6; stroke-linecap: square"/>
   </g>
   <g id="line2d_26">
    <path d="M 640.784758 503.415168 
L 649.251014 503.415168 
" clip-path="url(#p64882b325f)" style="fill: none; stroke: #1a202c; stroke-width: 2.6; stroke-linecap: square"/>
   </g>
   <g id="line2d_27">
    <path d="M 649.251014 503.415168 
L 665.377216 519.541371 
" clip-path="url(#p64882b325f)" style="fill: none; stroke: #1a202c; stroke-width: 2.6; stroke-linecap: square"/>
   </g>
   <g id="line2d_28">
    <path d="M 665.377216 519.541371 
L 689.874384 519.541371 
" clip-path="url(#p64882b325f)" style="fill: none; stroke: #1a202c; stroke-width: 2.6; stroke-linecap: square"/>
   </g>
   <g id="line2d_29">
    <path d="M 689.874384 519.541371 
L 689.874384 435.245313 
" clip-path="url(#p64882b325f)" style="fill: none; stroke: #1a202c; stroke-width: 2.6; stroke-linecap: square"/>
   </g>
   <g id="line2d_30">
    <path d="M 689.874384 435.245313 
L 717.420869 435.245313 
" clip-path="url(#p64882b325f)" style="fill: none; stroke: #1a202c; stroke-width: 2.6; stroke-linecap: square"/>
   </g>
   <g id="line2d_31">
    <path d="M 717.420869 435.245313 
L 737.219448 455.043891 
" clip-path="url(#p64882b325f)" style="fill: none; stroke: #1a202c; stroke-width: 2.6; stroke-linecap: square"/>
   </g>
   <g id="line2d_32">
    <path d="M 737.219448 455.043891 
L 737.219448 617.148876 
" clip-path="url(#p64882b325f)" style="fill: none; stroke: #1a202c; stroke-width: 2.6; stroke-linecap: square"/>
   </g>
   <g id="line2d_33">
    <path d="M 737.219448 617.148876 
L 732.081053 621.42965 
" clip-path="url(#p64882b325f)" style="fill: none; stroke: #1a202c; stroke-width: 2.6; stroke-linecap: square"/>
   </g>
   <g id="line2d_34">
    <path d="M 732.081053 621.42965 
L 700.561658 621.42965 
" clip-path="url(#p64882b325f)" style="fill: none; stroke: #1a202c; stroke-width: 2.6; stroke-linecap: square"/>
   </g>
   <g id="line2d_35">
    <path d="M 700.561658 621.42965 
L 700.561658 590.35739 
" clip-path="url(#p64882b325f)" style="fill: none; stroke: #1a202c; stroke-width: 2.6; stroke-linecap: square"/>
   </g>
   <g id="line2d_36">
    <path d="M 700.561658 590.35739 
L 673.858133 575.983079 
" clip-path="url(#p64882b325f)" style="fill: none; stroke: #1a202c; stroke-width: 2.6; stroke-linecap: square"/>
   </g>
   <g id="line2d_37">
    <path d="M 673.858133 575.983079 
L 651.611303 575.983079 
" clip-path="url(#p64882b325f)" style="fill: none; stroke: #1a202c; stroke-width: 2.6; stroke-linecap: square"/>
   </g>
   <g id="line2d_38">
    <path d="M 651.611303 575.983079 
L 594.597848 539.332619 
" clip-path="url(#p64882b325f)" style="fill: none; stroke: #1a202c; stroke-width: 2.6; stroke-linecap: square"/>
   </g>
   <g id="line2d_39">
    <path d="M 594.597848 539.332619 
L 521.267607 539.332619 
" clip-path="url(#p64882b325f)" style="fill: none; stroke: #1a202c; stroke-width: 2.6; stroke-linecap: square"/>
   </g>
   <g id="line2d_40">
    <path d="M 521.267607 539.332619 
L 475.527833 504.148177 
" clip-path="url(#p64882b325f)" style="fill: none; stroke: #1a202c; stroke-width: 2.6; stroke-linecap: square"/>
   </g>
   <g id="line2d_41">
    <path d="M 475.527833 504.148177 
L 424.217189 482.157901 
" clip-path="url(#p64882b325f)" style="fill: none; stroke: #1a202c; stroke-width: 2.6; stroke-linecap: square"/>
   </g>
   <g id="line2d_42">
    <path d="M 424.217189 482.157901 
L 420.552143 476.051935 
" clip-path="url(#p64882b325f)" style="fill: none; stroke: #1a202c; stroke-width: 2.6; stroke-linecap: square"/>
   </g>
   <g id="line2d_43">
    <path d="M 420.552143 476.051935 
L 420.552143 431.580267 
" clip-path="url(#p64882b325f)" style="fill: none; stroke: #1a202c; stroke-width: 2.6; stroke-linecap: square"/>
   </g>
   <g id="line2d_44">
    <path d="M 420.552143 431.580267 
L 489.425688 431.580267 
" clip-path="url(#p64882b325f)" style="fill: none; stroke: #1a202c; stroke-width: 2.6; stroke-linecap: square"/>
   </g>
   <g id="line2d_45">
    <path d="M 489.425688 431.580267 
L 489.425688 280.411779 
" clip-path="url(#p64882b325f)" style="fill: none; stroke: #1a202c; stroke-width: 2.6; stroke-linecap: square"/>
   </g>
   <g id="line2d_46">
    <path d="M 489.425688 280.411779 
L 503.660726 242.463893 
" clip-path="url(#p64882b325f)" style="fill: none; stroke: #1a202c; stroke-width: 2.6; stroke-linecap: square"/>
   </g>
   <g id="line2d_47">
    <path d="M 503.660726 242.463893 
L 509.246256 242.463893 
" clip-path="url(#p64882b325f)" style="fill: none; stroke: #1a202c; stroke-width: 2.6; stroke-linecap: square"/>
   </g>
   <g id="line2d_48">
    <path d="M 509.246256 242.463893 
L 509.246256 225.604681 
" clip-path="url(#p64882b325f)" style="fill: none; stroke: #1a202c; stroke-width: 2.6; stroke-linecap: square"/>
   </g>
   <g id="line2d_49">
    <path d="M 509.246256 225.604681 
L 493.120054 214.31634 
" clip-path="url(#p64882b325f)" style="fill: none; stroke: #1a202c; stroke-width: 2.6; stroke-linecap: square"/>
   </g>
   <g id="line2d_50">
    <path d="M 493.120054 214.31634 
L 493.120054 170.57035 
" clip-path="url(#p64882b325f)" style="fill: none; stroke: #1a202c; stroke-width: 2.6; stroke-linecap: square"/>
   </g>
   <g id="line2d_51">
    <path d="M 493.120054 170.57035 
L 625.611467 170.57035 
" clip-path="url(#p64882b325f)" style="fill: none; stroke: #1a202c; stroke-width: 2.6; stroke-linecap: square"/>
   </g>
   <g id="line2d_52">
    <path d="M 282.013404 460.900635 
L 268.819239 460.900635 
" clip-path="url(#p64882b325f)" style="fill: none; stroke: #1a202c; stroke-width: 2.6; stroke-linecap: square"/>
   </g>
   <g id="line2d_53">
    <path d="M 268.819239 460.900635 
L 268.819239 470.429754 
" clip-path="url(#p64882b325f)" style="fill: none; stroke: #1a202c; stroke-width: 2.6; stroke-linecap: square"/>
   </g>
   <g id="line2d_54">
    <path d="M 268.819239 470.429754 
L 252.693036 485.089938 
" clip-path="url(#p64882b325f)" style="fill: none; stroke: #1a202c; stroke-width: 2.6; stroke-linecap: square"/>
   </g>
   <g id="line2d_55">
    <path d="M 252.693036 485.089938 
L 252.693036 496.085076 
" clip-path="url(#p64882b325f)" style="fill: none; stroke: #1a202c; stroke-width: 2.6; stroke-linecap: square"/>
   </g>
   <g id="line2d_56">
    <path d="M 252.693036 496.085076 
L 236.566834 496.085076 
" clip-path="url(#p64882b325f)" style="fill: none; stroke: #1a202c; stroke-width: 2.6; stroke-linecap: square"/>
   </g>
   <g id="line2d_57">
    <path d="M 236.566834 496.085076 
L 236.566834 526.138453 
" clip-path="url(#p64882b325f)" style="fill: none; stroke: #1a202c; stroke-width: 2.6; stroke-linecap: square"/>
   </g>
   <g id="line2d_58">
    <path d="M 236.566834 526.138453 
L 220.31602 549.609408 
" clip-path="url(#p64882b325f)" style="fill: none; stroke: #1a202c; stroke-width: 2.6; stroke-linecap: square"/>
   </g>
   <g id="line2d_59">
    <path d="M 220.31602 549.609408 
L 191.64803 549.609408 
" clip-path="url(#p64882b325f)" style="fill: none; stroke: #1a202c; stroke-width: 2.6; stroke-linecap: square"/>
   </g>
   <g id="line2d_60">
    <path d="M 191.64803 549.609408 
L 173.528043 562.788914 
" clip-path="url(#p64882b325f)" style="fill: none; stroke: #1a202c; stroke-width: 2.6; stroke-linecap: square"/>
   </g>
   <g id="line2d_61">
    <path d="M 173.528043 562.788914 
L 141.275638 562.788914 
" clip-path="url(#p64882b325f)" style="fill: none; stroke: #1a202c; stroke-width: 2.6; stroke-linecap: square"/>
   </g>
   <g id="line2d_62">
    <path d="M 141.275638 562.788914 
L 119.285362 551.060766 
" clip-path="url(#p64882b325f)" style="fill: none; stroke: #1a202c; stroke-width: 2.6; stroke-linecap: square"/>
   </g>
   <g id="line2d_63">
    <path d="M 119.285362 551.060766 
L 77.503837 551.060766 
" clip-path="url(#p64882b325f)" style="fill: none; stroke: #1a202c; stroke-width: 2.6; stroke-linecap: square"/>
   </g>
   <g id="line2d_64">
    <path d="M 77.503837 551.060766 
L 77.503837 515.561131 
" clip-path="url(#p64882b325f)" style="fill: none; stroke: #1a202c; stroke-width: 2.6; stroke-linecap: square"/>
   </g>
   <g id="line2d_65">
    <path d="M 77.503837 515.561131 
L 89.964994 510.217494 
" clip-path="url(#p64882b325f)" style="fill: none; stroke: #1a202c; stroke-width: 2.6; stroke-linecap: square"/>
   </g>
   <g id="line2d_66">
    <path d="M 89.964994 510.217494 
L 89.964994 443.308414 
" clip-path="url(#p64882b325f)" style="fill: none; stroke: #1a202c; stroke-width: 2.6; stroke-linecap: square"/>
   </g>
   <g id="line2d_67">
    <path d="M 89.964994 443.308414 
L 54.780552 443.308414 
" clip-path="url(#p64882b325f)" style="fill: none; stroke: #1a202c; stroke-width: 2.6; stroke-linecap: square"/>
   </g>
   <g id="line2d_68">
    <path d="M 54.780552 443.308414 
L 54.780552 430.114248 
" clip-path="url(#p64882b325f)" style="fill: none; stroke: #1a202c; stroke-width: 2.6; stroke-linecap: square"/>
   </g>
   <g id="line2d_69">
    <path d="M 54.780552 430.114248 
L 105.358187 430.114248 
" clip-path="url(#p64882b325f)" style="fill: none; stroke: #1a202c; stroke-width: 2.6; stroke-linecap: square"/>
   </g>
   <g id="line2d_70">
    <path d="M 105.358187 430.114248 
L 105.358187 455.036561 
" clip-path="url(#p64882b325f)" style="fill: none; stroke: #1a202c; stroke-width: 2.6; stroke-linecap: square"/>
   </g>
   <g id="line2d_71">
    <path d="M 105.358187 455.036561 
L 119.93774 455.036561 
" clip-path="url(#p64882b325f)" style="fill: none; stroke: #1a202c; stroke-width: 2.6; stroke-linecap: square"/>
   </g>
   <g id="line2d_72">
    <path d="M 119.93774 455.036561 
L 131.013509 442.575405 
" clip-path="url(#p64882b325f)" style="fill: none; stroke: #1a202c; stroke-width: 2.6; stroke-linecap: square"/>
   </g>
   <g id="line2d_73">
    <path d="M 131.013509 442.575405 
L 171.329015 442.575405 
" clip-path="url(#p64882b325f)" style="fill: none; stroke: #1a202c; stroke-width: 2.6; stroke-linecap: square"/>
   </g>
   <g id="line2d_74">
    <path d="M 171.329015 442.575405 
L 171.329015 425.115125 
" clip-path="url(#p64882b325f)" style="fill: none; stroke: #1a202c; stroke-width: 2.6; stroke-linecap: square"/>
   </g>
   <g id="line2d_75">
    <path d="M 171.329015 425.115125 
L 189.654245 411.789018 
" clip-path="url(#p64882b325f)" style="fill: none; stroke: #1a202c; stroke-width: 2.6; stroke-linecap: square"/>
   </g>
   <g id="line2d_76">
    <path d="M 189.654245 411.789018 
L 189.654245 386.624812 
" clip-path="url(#p64882b325f)" style="fill: none; stroke: #1a202c; stroke-width: 2.6; stroke-linecap: square"/>
   </g>
   <g id="line2d_77">
    <path d="M 189.654245 386.624812 
L 262.955165 386.624812 
" clip-path="url(#p64882b325f)" style="fill: none; stroke: #1a202c; stroke-width: 2.6; stroke-linecap: square"/>
   </g>
   <g id="line2d_78">
    <path d="M 262.955165 386.624812 
L 262.955165 425.716193 
" clip-path="url(#p64882b325f)" style="fill: none; stroke: #1a202c; stroke-width: 2.6; stroke-linecap: square"/>
   </g>
   <g id="line2d_79">
    <path d="M 262.955165 425.716193 
L 282.013404 425.716193 
" clip-path="url(#p64882b325f)" style="fill: none; stroke: #1a202c; stroke-width: 2.6; stroke-linecap: square"/>
   </g>
   <g id="line2d_80">
    <path d="M 282.013404 425.716193 
L 282.013404 460.900635 
" clip-path="url(#p64882b325f)" style="fill: none; stroke: #1a202c; stroke-width: 2.6; stroke-linecap: square"/>
   </g>
   <g id="text_1">
    <!-- 1 m -->
    <g transform="translate(62.692299 639.75488) scale(0.07 -0.07)">
     <defs>
      <path id="DejaVuSans-14" d="M 794 531 
L 1825 531 
L 1825 4091 
L 703 3866 
L 703 4441 
L 1819 4666 
L 2450 4666 
L 2450 531 
L 3481 531 
L 3481 0 
L 794 0 
L 794 531 
z
" transform="scale(0.015625)"/>
      <path id="DejaVuSans-3" transform="scale(0.015625)"/>
      <path id="DejaVuSans-50" d="M 3328 2828 
Q 3544 3216 3844 3400 
Q 4144 3584 4550 3584 
Q 5097 3584 5394 3201 
Q 5691 2819 5691 2113 
L 5691 0 
L 5113 0 
L 5113 2094 
Q 5113 2597 4934 2840 
Q 4756 3084 4391 3084 
Q 3944 3084 3684 2787 
Q 3425 2491 3425 1978 
L 3425 0 
L 2847 0 
L 2847 2094 
Q 2847 2600 2669 2842 
Q 2491 3084 2119 3084 
Q 1678 3084 1418 2786 
Q 1159 2488 1159 1978 
L 1159 0 
L 581 0 
L 581 3500 
L 1159 3500 
L 1159 2956 
Q 1356 3278 1631 3431 
Q 1906 3584 2284 3584 
Q 2666 3584 2933 3390 
Q 3200 3197 3328 2828 
z
" transform="scale(0.015625)"/>
     </defs>
     <use xlink:href="#DejaVuSans-14"/>
     <use xlink:href="#DejaVuSans-3" transform="translate(63.625 0)"/>
     <use xlink:href="#DejaVuSans-50" transform="translate(95.40625 0)"/>
    </g>
   </g>
   <g id="text_2">
    <!-- rgb_upright · tier: video -->
    <g transform="translate(342.9 109.787337) scale(0.09 -0.09)">
     <defs>
      <path id="DejaVuSans-55" d="M 2631 2963 
Q 2534 3019 2420 3045 
Q 2306 3072 2169 3072 
Q 1681 3072 1420 2755 
Q 1159 2438 1159 1844 
L 1159 0 
L 581 0 
L 581 3500 
L 1159 3500 
L 1159 2956 
Q 1341 3275 1631 3429 
Q 1922 3584 2338 3584 
Q 2397 3584 2469 3576 
Q 2541 3569 2628 3553 
L 2631 2963 
z
" transform="scale(0.015625)"/>
      <path id="DejaVuSans-4a" d="M 2906 1791 
Q 2906 2416 2648 2759 
Q 2391 3103 1925 3103 
Q 1463 3103 1205 2759 
Q 947 2416 947 1791 
Q 947 1169 1205 825 
Q 1463 481 1925 481 
Q 2391 481 2648 825 
Q 2906 1169 2906 1791 
z
M 3481 434 
Q 3481 -459 3084 -895 
Q 2688 -1331 1869 -1331 
Q 1566 -1331 1297 -1286 
Q 1028 -1241 775 -1147 
L 775 -588 
Q 1028 -725 1275 -790 
Q 1522 -856 1778 -856 
Q 2344 -856 2625 -561 
Q 2906 -266 2906 331 
L 2906 616 
Q 2728 306 2450 153 
Q 2172 0 1784 0 
Q 1141 0 747 490 
Q 353 981 353 1791 
Q 353 2603 747 3093 
Q 1141 3584 1784 3584 
Q 2172 3584 2450 3431 
Q 2728 3278 2906 2969 
L 2906 3500 
L 3481 3500 
L 3481 434 
z
" transform="scale(0.015625)"/>
      <path id="DejaVuSans-45" d="M 3116 1747 
Q 3116 2381 2855 2742 
Q 2594 3103 2138 3103 
Q 1681 3103 1420 2742 
Q 1159 2381 1159 1747 
Q 1159 1113 1420 752 
Q 1681 391 2138 391 
Q 2594 391 2855 752 
Q 3116 1113 3116 1747 
z
M 1159 2969 
Q 1341 3281 1617 3432 
Q 1894 3584 2278 3584 
Q 2916 3584 3314 3078 
Q 3713 2572 3713 1747 
Q 3713 922 3314 415 
Q 2916 -91 2278 -91 
Q 1894 -91 1617 61 
Q 1341 213 1159 525 
L 1159 0 
L 581 0 
L 581 4863 
L 1159 4863 
L 1159 2969 
z
" transform="scale(0.015625)"/>
      <path id="DejaVuSans-42" d="M 3263 -1063 
L 3263 -1509 
L -63 -1509 
L -63 -1063 
L 3263 -1063 
z
" transform="scale(0.015625)"/>
      <path id="DejaVuSans-58" d="M 544 1381 
L 544 3500 
L 1119 3500 
L 1119 1403 
Q 1119 906 1312 657 
Q 1506 409 1894 409 
Q 2359 409 2629 706 
Q 2900 1003 2900 1516 
L 2900 3500 
L 3475 3500 
L 3475 0 
L 2900 0 
L 2900 538 
Q 2691 219 2414 64 
Q 2138 -91 1772 -91 
Q 1169 -91 856 284 
Q 544 659 544 1381 
z
M 1991 3584 
L 1991 3584 
z
" transform="scale(0.015625)"/>
      <path id="DejaVuSans-53" d="M 1159 525 
L 1159 -1331 
L 581 -1331 
L 581 3500 
L 1159 3500 
L 1159 2969 
Q 1341 3281 1617 3432 
Q 1894 3584 2278 3584 
Q 2916 3584 3314 3078 
Q 3713 2572 3713 1747 
Q 3713 922 3314 415 
Q 2916 -91 2278 -91 
Q 1894 -91 1617 61 
Q 1341 213 1159 525 
z
M 3116 1747 
Q 3116 2381 2855 2742 
Q 2594 3103 2138 3103 
Q 1681 3103 1420 2742 
Q 1159 2381 1159 1747 
Q 1159 1113 1420 752 
Q 1681 391 2138 391 
Q 2594 391 2855 752 
Q 3116 1113 3116 1747 
z
" transform="scale(0.015625)"/>
      <path id="DejaVuSans-4c" d="M 603 3500 
L 1178 3500 
L 1178 0 
L 603 0 
L 603 3500 
z
M 603 4863 
L 1178 4863 
L 1178 4134 
L 603 4134 
L 603 4863 
z
" transform="scale(0.015625)"/>
      <path id="DejaVuSans-4b" d="M 3513 2113 
L 3513 0 
L 2938 0 
L 2938 2094 
Q 2938 2591 2744 2837 
Q 2550 3084 2163 3084 
Q 1697 3084 1428 2787 
Q 1159 2491 1159 1978 
L 1159 0 
L 581 0 
L 581 4863 
L 1159 4863 
L 1159 2956 
Q 1366 3272 1645 3428 
Q 1925 3584 2291 3584 
Q 2894 3584 3203 3211 
Q 3513 2838 3513 2113 
z
" transform="scale(0.015625)"/>
      <path id="DejaVuSans-57" d="M 1172 4494 
L 1172 3500 
L 2356 3500 
L 2356 3053 
L 1172 3053 
L 1172 1153 
Q 1172 725 1289 603 
Q 1406 481 1766 481 
L 2356 481 
L 2356 0 
L 1766 0 
Q 1100 0 847 248 
Q 594 497 594 1153 
L 594 3053 
L 172 3053 
L 172 3500 
L 594 3500 
L 594 4494 
L 1172 4494 
z
" transform="scale(0.015625)"/>
      <path id="DejaVuSans-79" d="M 684 2619 
L 1344 2619 
L 1344 1825 
L 684 1825 
L 684 2619 
z
" transform="scale(0.015625)"/>
      <path id="DejaVuSans-48" d="M 3597 1894 
L 3597 1613 
L 953 1613 
Q 991 1019 1311 708 
Q 1631 397 2203 397 
Q 2534 397 2845 478 
Q 3156 559 3463 722 
L 3463 178 
Q 3153 47 2828 -22 
Q 2503 -91 2169 -91 
Q 1331 -91 842 396 
Q 353 884 353 1716 
Q 353 2575 817 3079 
Q 1281 3584 2069 3584 
Q 2775 3584 3186 3129 
Q 3597 2675 3597 1894 
z
M 3022 2063 
Q 3016 2534 2758 2815 
Q 2500 3097 2075 3097 
Q 1594 3097 1305 2825 
Q 1016 2553 972 2059 
L 3022 2063 
z
" transform="scale(0.015625)"/>
      <path id="DejaVuSans-1d" d="M 750 794 
L 1409 794 
L 1409 0 
L 750 0 
L 750 794 
z
M 750 3309 
L 1409 3309 
L 1409 2516 
L 750 2516 
L 750 3309 
z
" transform="scale(0.015625)"/>
      <path id="DejaVuSans-59" d="M 191 3500 
L 800 3500 
L 1894 563 
L 2988 3500 
L 3597 3500 
L 2284 0 
L 1503 0 
L 191 3500 
z
" transform="scale(0.015625)"/>
      <path id="DejaVuSans-47" d="M 2906 2969 
L 2906 4863 
L 3481 4863 
L 3481 0 
L 2906 0 
L 2906 525 
Q 2725 213 2448 61 
Q 2172 -91 1784 -91 
Q 1150 -91 751 415 
Q 353 922 353 1747 
Q 353 2572 751 3078 
Q 1150 3584 1784 3584 
Q 2172 3584 2448 3432 
Q 2725 3281 2906 2969 
z
M 947 1747 
Q 947 1113 1208 752 
Q 1469 391 1925 391 
Q 2381 391 2643 752 
Q 2906 1113 2906 1747 
Q 2906 2381 2643 2742 
Q 2381 3103 1925 3103 
Q 1469 3103 1208 2742 
Q 947 2381 947 1747 
z
" transform="scale(0.015625)"/>
      <path id="DejaVuSans-52" d="M 1959 3097 
Q 1497 3097 1228 2736 
Q 959 2375 959 1747 
Q 959 1119 1226 758 
Q 1494 397 1959 397 
Q 2419 397 2687 759 
Q 2956 1122 2956 1747 
Q 2956 2369 2687 2733 
Q 2419 3097 1959 3097 
z
M 1959 3584 
Q 2709 3584 3137 3096 
Q 3566 2609 3566 1747 
Q 3566 888 3137 398 
Q 2709 -91 1959 -91 
Q 1206 -91 779 398 
Q 353 888 353 1747 
Q 353 2609 779 3096 
Q 1206 3584 1959 3584 
z
" transform="scale(0.015625)"/>
     </defs>
     <use xlink:href="#DejaVuSans-55"/>
     <use xlink:href="#DejaVuSans-4a" transform="translate(39.359375 0)"/>
     <use xlink:href="#DejaVuSans-45" transform="translate(102.84375 0)"/>
     <use xlink:href="#DejaVuSans-42" transform="translate(166.328125 0)"/>
     <use xlink:href="#DejaVuSans-58" transform="translate(216.328125 0)"/>
     <use xlink:href="#DejaVuSans-53" transform="translate(279.703125 0)"/>
     <use xlink:href="#DejaVuSans-55" transform="translate(343.1875 0)"/>
     <use xlink:href="#DejaVuSans-4c" transform="translate(384.296875 0)"/>
     <use xlink:href="#DejaVuSans-4a" transform="translate(412.078125 0)"/>
     <use xlink:href="#DejaVuSans-4b" transform="translate(475.5625 0)"/>
     <use xlink:href="#DejaVuSans-57" transform="translate(538.9375 0)"/>
     <use xlink:href="#DejaVuSans-3" transform="translate(578.140625 0)"/>
     <use xlink:href="#DejaVuSans-79" transform="translate(609.921875 0)"/>
     <use xlink:href="#DejaVuSans-3" transform="translate(641.703125 0)"/>
     <use xlink:href="#DejaVuSans-57" transform="translate(673.484375 0)"/>
     <use xlink:href="#DejaVuSans-4c" transform="translate(712.6875 0)"/>
     <use xlink:href="#DejaVuSans-48" transform="translate(740.46875 0)"/>
     <use xlink:href="#DejaVuSans-55" transform="translate(802 0)"/>
     <use xlink:href="#DejaVuSans-1d" transform="translate(841.359375 0)"/>
     <use xlink:href="#DejaVuSans-3" transform="translate(875.046875 0)"/>
     <use xlink:href="#DejaVuSans-59" transform="translate(906.828125 0)"/>
     <use xlink:href="#DejaVuSans-4c" transform="translate(966.015625 0)"/>
     <use xlink:href="#DejaVuSans-47" transform="translate(993.796875 0)"/>
     <use xlink:href="#DejaVuSans-48" transform="translate(1057.28125 0)"/>
     <use xlink:href="#DejaVuSans-52" transform="translate(1118.8125 0)"/>
    </g>
    <!-- footprint 13.3 m² (90% CI 3.3–23.2) · 2 rooms · walls: length ± 90% half-width -->
    <g transform="translate(220.085859 120.589798) scale(0.09 -0.09)">
     <defs>
      <path id="DejaVuSans-49" d="M 2375 4863 
L 2375 4384 
L 1825 4384 
Q 1516 4384 1395 4259 
Q 1275 4134 1275 3809 
L 1275 3500 
L 2222 3500 
L 2222 3053 
L 1275 3053 
L 1275 0 
L 697 0 
L 697 3053 
L 147 3053 
L 147 3500 
L 697 3500 
L 697 3744 
Q 697 4328 969 4595 
Q 1241 4863 1831 4863 
L 2375 4863 
z
" transform="scale(0.015625)"/>
      <path id="DejaVuSans-51" d="M 3513 2113 
L 3513 0 
L 2938 0 
L 2938 2094 
Q 2938 2591 2744 2837 
Q 2550 3084 2163 3084 
Q 1697 3084 1428 2787 
Q 1159 2491 1159 1978 
L 1159 0 
L 581 0 
L 581 3500 
L 1159 3500 
L 1159 2956 
Q 1366 3272 1645 3428 
Q 1925 3584 2291 3584 
Q 2894 3584 3203 3211 
Q 3513 2838 3513 2113 
z
" transform="scale(0.015625)"/>
      <path id="DejaVuSans-16" d="M 2597 2516 
Q 3050 2419 3304 2112 
Q 3559 1806 3559 1356 
Q 3559 666 3084 287 
Q 2609 -91 1734 -91 
Q 1441 -91 1130 -33 
Q 819 25 488 141 
L 488 750 
Q 750 597 1062 519 
Q 1375 441 1716 441 
Q 2309 441 2620 675 
Q 2931 909 2931 1356 
Q 2931 1769 2642 2001 
Q 2353 2234 1838 2234 
L 1294 2234 
L 1294 2753 
L 1863 2753 
Q 2328 2753 2575 2939 
Q 2822 3125 2822 3475 
Q 2822 3834 2567 4026 
Q 2313 4219 1838 4219 
Q 1578 4219 1281 4162 
Q 984 4106 628 3988 
L 628 4550 
Q 988 4650 1302 4700 
Q 1616 4750 1894 4750 
Q 2613 4750 3031 4423 
Q 3450 4097 3450 3541 
Q 3450 3153 3228 2886 
Q 3006 2619 2597 2516 
z
" transform="scale(0.015625)"/>
      <path id="DejaVuSans-11" d="M 684 794 
L 1344 794 
L 1344 0 
L 684 0 
L 684 794 
z
" transform="scale(0.015625)"/>
      <path id="DejaVuSans-74" d="M 838 2444 
L 2163 2444 
L 2163 2088 
L 294 2088 
L 294 2431 
Q 400 2528 597 2703 
Q 1672 3656 1672 3950 
Q 1672 4156 1509 4282 
Q 1347 4409 1081 4409 
Q 919 4409 728 4354 
Q 538 4300 313 4191 
L 313 4575 
Q 553 4663 761 4706 
Q 969 4750 1147 4750 
Q 1600 4750 1872 4544 
Q 2144 4338 2144 4000 
Q 2144 3566 1109 2678 
Q 934 2528 838 2444 
z
" transform="scale(0.015625)"/>
      <path id="DejaVuSans-b" d="M 1984 4856 
Q 1566 4138 1362 3434 
Q 1159 2731 1159 2009 
Q 1159 1288 1364 580 
Q 1569 -128 1984 -844 
L 1484 -844 
Q 1016 -109 783 600 
Q 550 1309 550 2009 
Q 550 2706 781 3412 
Q 1013 4119 1484 4856 
L 1984 4856 
z
" transform="scale(0.015625)"/>
      <path id="DejaVuSans-1c" d="M 703 97 
L 703 672 
Q 941 559 1184 500 
Q 1428 441 1663 441 
Q 2288 441 2617 861 
Q 2947 1281 2994 2138 
Q 2813 1869 2534 1725 
Q 2256 1581 1919 1581 
Q 1219 1581 811 2004 
Q 403 2428 403 3163 
Q 403 3881 828 4315 
Q 1253 4750 1959 4750 
Q 2769 4750 3195 4129 
Q 3622 3509 3622 2328 
Q 3622 1225 3098 567 
Q 2575 -91 1691 -91 
Q 1453 -91 1209 -44 
Q 966 3 703 97 
z
M 1959 2075 
Q 2384 2075 2632 2365 
Q 2881 2656 2881 3163 
Q 2881 3666 2632 3958 
Q 2384 4250 1959 4250 
Q 1534 4250 1286 3958 
Q 1038 3666 1038 3163 
Q 1038 2656 1286 2365 
Q 1534 2075 1959 2075 
z
" transform="scale(0.015625)"/>
      <path id="DejaVuSans-13" d="M 2034 4250 
Q 1547 4250 1301 3770 
Q 1056 3291 1056 2328 
Q 1056 1369 1301 889 
Q 1547 409 2034 409 
Q 2525 409 2770 889 
Q 3016 1369 3016 2328 
Q 3016 3291 2770 3770 
Q 2525 4250 2034 4250 
z
M 2034 4750 
Q 2819 4750 3233 4129 
Q 3647 3509 3647 2328 
Q 3647 1150 3233 529 
Q 2819 -91 2034 -91 
Q 1250 -91 836 529 
Q 422 1150 422 2328 
Q 422 3509 836 4129 
Q 1250 4750 2034 4750 
z
" transform="scale(0.015625)"/>
      <path id="DejaVuSans-8" d="M 4653 2053 
Q 4381 2053 4226 1822 
Q 4072 1591 4072 1178 
Q 4072 772 4226 539 
Q 4381 306 4653 306 
Q 4919 306 5073 539 
Q 5228 772 5228 1178 
Q 5228 1588 5073 1820 
Q 4919 2053 4653 2053 
z
M 4653 2450 
Q 5147 2450 5437 2106 
Q 5728 1763 5728 1178 
Q 5728 594 5436 251 
Q 5144 -91 4653 -91 
Q 4153 -91 3862 251 
Q 3572 594 3572 1178 
Q 3572 1766 3864 2108 
Q 4156 2450 4653 2450 
z
M 1428 4353 
Q 1159 4353 1004 4120 
Q 850 3888 850 3481 
Q 850 3069 1003 2837 
Q 1156 2606 1428 2606 
Q 1700 2606 1854 2837 
Q 2009 3069 2009 3481 
Q 2009 3884 1853 4118 
Q 1697 4353 1428 4353 
z
M 4250 4750 
L 4750 4750 
L 1831 -91 
L 1331 -91 
L 4250 4750 
z
M 1428 4750 
Q 1922 4750 2215 4408 
Q 2509 4066 2509 3481 
Q 2509 2891 2217 2550 
Q 1925 2209 1428 2209 
Q 931 2209 642 2551 
Q 353 2894 353 3481 
Q 353 4063 643 4406 
Q 934 4750 1428 4750 
z
" transform="scale(0.015625)"/>
      <path id="DejaVuSans-26" d="M 4122 4306 
L 4122 3641 
Q 3803 3938 3442 4084 
Q 3081 4231 2675 4231 
Q 1875 4231 1450 3742 
Q 1025 3253 1025 2328 
Q 1025 1406 1450 917 
Q 1875 428 2675 428 
Q 3081 428 3442 575 
Q 3803 722 4122 1019 
L 4122 359 
Q 3791 134 3420 21 
Q 3050 -91 2638 -91 
Q 1578 -91 968 557 
Q 359 1206 359 2328 
Q 359 3453 968 4101 
Q 1578 4750 2638 4750 
Q 3056 4750 3426 4639 
Q 3797 4528 4122 4306 
z
" transform="scale(0.015625)"/>
      <path id="DejaVuSans-2c" d="M 628 4666 
L 1259 4666 
L 1259 0 
L 628 0 
L 628 4666 
z
" transform="scale(0.015625)"/>
      <path id="DejaVuSans-af5" d="M 313 1978 
L 2888 1978 
L 2888 1528 
L 313 1528 
L 313 1978 
z
" transform="scale(0.015625)"/>
      <path id="DejaVuSans-15" d="M 1228 531 
L 3431 531 
L 3431 0 
L 469 0 
L 469 531 
Q 828 903 1448 1529 
Q 2069 2156 2228 2338 
Q 2531 2678 2651 2914 
Q 2772 3150 2772 3378 
Q 2772 3750 2511 3984 
Q 2250 4219 1831 4219 
Q 1534 4219 1204 4116 
Q 875 4013 500 3803 
L 500 4441 
Q 881 4594 1212 4672 
Q 1544 4750 1819 4750 
Q 2544 4750 2975 4387 
Q 3406 4025 3406 3419 
Q 3406 3131 3298 2873 
Q 3191 2616 2906 2266 
Q 2828 2175 2409 1742 
Q 1991 1309 1228 531 
z
" transform="scale(0.015625)"/>
      <path id="DejaVuSans-c" d="M 513 4856 
L 1013 4856 
Q 1481 4119 1714 3412 
Q 1947 2706 1947 2009 
Q 1947 1309 1714 600 
Q 1481 -109 1013 -844 
L 513 -844 
Q 928 -128 1133 580 
Q 1338 1288 1338 2009 
Q 1338 2731 1133 3434 
Q 928 4138 513 4856 
z
" transform="scale(0.015625)"/>
      <path id="DejaVuSans-56" d="M 2834 3397 
L 2834 2853 
Q 2591 2978 2328 3040 
Q 2066 3103 1784 3103 
Q 1356 3103 1142 2972 
Q 928 2841 928 2578 
Q 928 2378 1081 2264 
Q 1234 2150 1697 2047 
L 1894 2003 
Q 2506 1872 2764 1633 
Q 3022 1394 3022 966 
Q 3022 478 2636 193 
Q 2250 -91 1575 -91 
Q 1294 -91 989 -36 
Q 684 19 347 128 
L 347 722 
Q 666 556 975 473 
Q 1284 391 1588 391 
Q 1994 391 2212 530 
Q 2431 669 2431 922 
Q 2431 1156 2273 1281 
Q 2116 1406 1581 1522 
L 1381 1569 
Q 847 1681 609 1914 
Q 372 2147 372 2553 
Q 372 3047 722 3315 
Q 1072 3584 1716 3584 
Q 2034 3584 2315 3537 
Q 2597 3491 2834 3397 
z
" transform="scale(0.015625)"/>
      <path id="DejaVuSans-5a" d="M 269 3500 
L 844 3500 
L 1563 769 
L 2278 3500 
L 2956 3500 
L 3675 769 
L 4391 3500 
L 4966 3500 
L 4050 0 
L 3372 0 
L 2619 2869 
L 1863 0 
L 1184 0 
L 269 3500 
z
" transform="scale(0.015625)"/>
      <path id="DejaVuSans-44" d="M 2194 1759 
Q 1497 1759 1228 1600 
Q 959 1441 959 1056 
Q 959 750 1161 570 
Q 1363 391 1709 391 
Q 2188 391 2477 730 
Q 2766 1069 2766 1631 
L 2766 1759 
L 2194 1759 
z
M 3341 1997 
L 3341 0 
L 2766 0 
L 2766 531 
Q 2569 213 2275 61 
Q 1981 -91 1556 -91 
Q 1019 -91 701 211 
Q 384 513 384 1019 
Q 384 1609 779 1909 
Q 1175 2209 1959 2209 
L 2766 2209 
L 2766 2266 
Q 2766 2663 2505 2880 
Q 2244 3097 1772 3097 
Q 1472 3097 1187 3025 
Q 903 2953 641 2809 
L 641 3341 
Q 956 3463 1253 3523 
Q 1550 3584 1831 3584 
Q 2591 3584 2966 3190 
Q 3341 2797 3341 1997 
z
" transform="scale(0.015625)"/>
      <path id="DejaVuSans-4f" d="M 603 4863 
L 1178 4863 
L 1178 0 
L 603 0 
L 603 4863 
z
" transform="scale(0.015625)"/>
      <path id="DejaVuSans-73" d="M 2944 4013 
L 2944 2803 
L 4684 2803 
L 4684 2272 
L 2944 2272 
L 2944 1063 
L 2419 1063 
L 2419 2272 
L 678 2272 
L 678 2803 
L 2419 2803 
L 2419 4013 
L 2944 4013 
z
M 678 531 
L 4684 531 
L 4684 0 
L 678 0 
L 678 531 
z
" transform="scale(0.015625)"/>
      <path id="DejaVuSans-10" d="M 313 2009 
L 1997 2009 
L 1997 1497 
L 313 1497 
L 313 2009 
z
" transform="scale(0.015625)"/>
     </defs>
     <use xlink:href="#DejaVuSans-49"/>
     <use xlink:href="#DejaVuSans-52" transform="translate(35.203125 0)"/>
     <use xlink:href="#DejaVuSans-52" transform="translate(96.390625 0)"/>
     <use xlink:href="#DejaVuSans-57" transform="translate(157.578125 0)"/>
     <use xlink:href="#DejaVuSans-53" transform="translate(196.78125 0)"/>
     <use xlink:href="#DejaVuSans-55" transform="translate(260.265625 0)"/>
     <use xlink:href="#DejaVuSans-4c" transform="translate(301.375 0)"/>
     <use xlink:href="#DejaVuSans-51" transform="translate(329.15625 0)"/>
     <use xlink:href="#DejaVuSans-57" transform="translate(392.53125 0)"/>
     <use xlink:href="#DejaVuSans-3" transform="translate(431.734375 0)"/>
     <use xlink:href="#DejaVuSans-14" transform="translate(463.515625 0)"/>
     <use xlink:href="#DejaVuSans-16" transform="translate(527.140625 0)"/>
     <use xlink:href="#DejaVuSans-11" transform="translate(590.765625 0)"/>
     <use xlink:href="#DejaVuSans-16" transform="translate(622.546875 0)"/>
     <use xlink:href="#DejaVuSans-3" transform="translate(686.171875 0)"/>
     <use xlink:href="#DejaVuSans-50" transform="translate(717.953125 0)"/>
     <use xlink:href="#DejaVuSans-74" transform="translate(815.359375 0)"/>
     <use xlink:href="#DejaVuSans-3" transform="translate(855.453125 0)"/>
     <use xlink:href="#DejaVuSans-b" transform="translate(887.234375 0)"/>
     <use xlink:href="#DejaVuSans-1c" transform="translate(926.25 0)"/>
     <use xlink:href="#DejaVuSans-13" transform="translate(989.875 0)"/>
     <use xlink:href="#DejaVuSans-8" transform="translate(1053.5 0)"/>
     <use xlink:href="#DejaVuSans-3" transform="translate(1148.515625 0)"/>
     <use xlink:href="#DejaVuSans-26" transform="translate(1180.296875 0)"/>
     <use xlink:href="#DejaVuSans-2c" transform="translate(1250.125 0)"/>
     <use xlink:href="#DejaVuSans-3" transform="translate(1279.625 0)"/>
     <use xlink:href="#DejaVuSans-16" transform="translate(1311.40625 0)"/>
     <use xlink:href="#DejaVuSans-11" transform="translate(1375.03125 0)"/>
     <use xlink:href="#DejaVuSans-16" transform="translate(1406.8125 0)"/>
     <use xlink:href="#DejaVuSans-af5" transform="translate(1470.4375 0)"/>
     <use xlink:href="#DejaVuSans-15" transform="translate(1520.4375 0)"/>
     <use xlink:href="#DejaVuSans-16" transform="translate(1584.0625 0)"/>
     <use xlink:href="#DejaVuSans-11" transform="translate(1647.6875 0)"/>
     <use xlink:href="#DejaVuSans-15" transform="translate(1679.46875 0)"/>
     <use xlink:href="#DejaVuSans-c" transform="translate(1743.09375 0)"/>
     <use xlink:href="#DejaVuSans-3" transform="translate(1782.109375 0)"/>
     <use xlink:href="#DejaVuSans-79" transform="translate(1813.890625 0)"/>
     <use xlink:href="#DejaVuSans-3" transform="translate(1845.671875 0)"/>
     <use xlink:href="#DejaVuSans-15" transform="translate(1877.453125 0)"/>
     <use xlink:href="#DejaVuSans-3" transform="translate(1941.078125 0)"/>
     <use xlink:href="#DejaVuSans-55" transform="translate(1972.859375 0)"/>
     <use xlink:href="#DejaVuSans-52" transform="translate(2011.765625 0)"/>
     <use xlink:href="#DejaVuSans-52" transform="translate(2072.953125 0)"/>
     <use xlink:href="#DejaVuSans-50" transform="translate(2134.140625 0)"/>
     <use xlink:href="#DejaVuSans-56" transform="translate(2231.546875 0)"/>
     <use xlink:href="#DejaVuSans-3" transform="translate(2283.640625 0)"/>
     <use xlink:href="#DejaVuSans-79" transform="translate(2315.421875 0)"/>
     <use xlink:href="#DejaVuSans-3" transform="translate(2347.203125 0)"/>
     <use xlink:href="#DejaVuSans-5a" transform="translate(2378.984375 0)"/>
     <use xlink:href="#DejaVuSans-44" transform="translate(2460.765625 0)"/>
     <use xlink:href="#DejaVuSans-4f" transform="translate(2522.046875 0)"/>
     <use xlink:href="#DejaVuSans-4f" transform="translate(2549.828125 0)"/>
     <use xlink:href="#DejaVuSans-56" transform="translate(2577.609375 0)"/>
     <use xlink:href="#DejaVuSans-1d" transform="translate(2629.703125 0)"/>
     <use xlink:href="#DejaVuSans-3" transform="translate(2663.390625 0)"/>
     <use xlink:href="#DejaVuSans-4f" transform="translate(2695.171875 0)"/>
     <use xlink:href="#DejaVuSans-48" transform="translate(2722.953125 0)"/>
     <use xlink:href="#DejaVuSans-51" transform="translate(2784.484375 0)"/>
     <use xlink:href="#DejaVuSans-4a" transform="translate(2847.859375 0)"/>
     <use xlink:href="#DejaVuSans-57" transform="translate(2911.34375 0)"/>
     <use xlink:href="#DejaVuSans-4b" transform="translate(2950.546875 0)"/>
     <use xlink:href="#DejaVuSans-3" transform="translate(3013.921875 0)"/>
     <use xlink:href="#DejaVuSans-73" transform="translate(3045.703125 0)"/>
     <use xlink:href="#DejaVuSans-3" transform="translate(3129.5 0)"/>
     <use xlink:href="#DejaVuSans-1c" transform="translate(3161.28125 0)"/>
     <use xlink:href="#DejaVuSans-13" transform="translate(3224.90625 0)"/>
     <use xlink:href="#DejaVuSans-8" transform="translate(3288.53125 0)"/>
     <use xlink:href="#DejaVuSans-3" transform="translate(3383.546875 0)"/>
     <use xlink:href="#DejaVuSans-4b" transform="translate(3415.328125 0)"/>
     <use xlink:href="#DejaVuSans-44" transform="translate(3478.703125 0)"/>
     <use xlink:href="#DejaVuSans-4f" transform="translate(3539.984375 0)"/>
     <use xlink:href="#DejaVuSans-49" transform="translate(3567.765625 0)"/>
     <use xlink:href="#DejaVuSans-10" transform="translate(3597.5 0)"/>
     <use xlink:href="#DejaVuSans-5a" transform="translate(3633.578125 0)"/>
     <use xlink:href="#DejaVuSans-4c" transform="translate(3715.359375 0)"/>
     <use xlink:href="#DejaVuSans-47" transform="translate(3743.140625 0)"/>
     <use xlink:href="#DejaVuSans-57" transform="translate(3806.625 0)"/>
     <use xlink:href="#DejaVuSans-4b" transform="translate(3845.828125 0)"/>
    </g>
   </g>
   <g id="line2d_81">
    <path d="M 527.04372 319.796363 
L 527.04372 416.920083 
" clip-path="url(#p64882b325f)" style="fill: none; stroke: #ffffff; stroke-width: 3.2; stroke-linecap: square"/>
   </g>
   <g id="line2d_82">
    <path d="M 527.04372 246.861948 
L 527.04372 281.496633 
" clip-path="url(#p64882b325f)" style="fill: none; stroke: #ffffff; stroke-width: 3.2; stroke-linecap: square"/>
   </g>
   <g id="line2d_83">
    <path d="M 504.848201 436.711331 
L 571.874563 436.711331 
" clip-path="url(#p64882b325f)" style="fill: none; stroke: #ffffff; stroke-width: 3.2; stroke-linecap: square"/>
   </g>
   <g id="line2d_84">
    <path d="M 131.013509 442.575405 
L 172.062024 442.575405 
" clip-path="url(#p64882b325f)" style="fill: none; stroke: #ffffff; stroke-width: 3.2; stroke-linecap: square"/>
   </g>
   <g id="line2d_85">
    <path d="M 527.04372 319.796363 
L 527.04372 416.920083 
" clip-path="url(#p64882b325f)" style="fill: none; stroke-dasharray: 5.92,2.56; stroke-dashoffset: 0; stroke: #3182ce; stroke-width: 1.6"/>
   </g>
   <g id="line2d_86">
    <path d="M 527.04372 246.861948 
L 527.04372 281.496633 
" clip-path="url(#p64882b325f)" style="fill: none; stroke-dasharray: 5.92,2.56; stroke-dashoffset: 0; stroke: #3182ce; stroke-width: 1.6"/>
   </g>
   <g id="line2d_87">
    <path d="M 504.848201 436.711331 
L 571.874563 436.711331 
" clip-path="url(#p64882b325f)" style="fill: none; stroke-dasharray: 5.92,2.56; stroke-dashoffset: 0; stroke: #3182ce; stroke-width: 1.6"/>
   </g>
   <g id="line2d_88">
    <path d="M 131.013509 442.575405 
L 172.062024 442.575405 
" clip-path="url(#p64882b325f)" style="fill: none; stroke-dasharray: 5.92,2.56; stroke-dashoffset: 0; stroke: #3182ce; stroke-width: 1.6"/>
   </g>
   <g id="text_3">
    <!-- 0.95 (0.21–1.68) -->
    <g style="fill: #2d3748" transform="translate(534.85248 232.424222) scale(0.065 -0.065)">
     <defs>
      <path id="DejaVuSans-18" d="M 691 4666 
L 3169 4666 
L 3169 4134 
L 1269 4134 
L 1269 2991 
Q 1406 3038 1543 3061 
Q 1681 3084 1819 3084 
Q 2600 3084 3056 2656 
Q 3513 2228 3513 1497 
Q 3513 744 3044 326 
Q 2575 -91 1722 -91 
Q 1428 -91 1123 -41 
Q 819 9 494 109 
L 494 744 
Q 775 591 1075 516 
Q 1375 441 1709 441 
Q 2250 441 2565 725 
Q 2881 1009 2881 1497 
Q 2881 1984 2565 2268 
Q 2250 2553 1709 2553 
Q 1456 2553 1204 2497 
Q 953 2441 691 2322 
L 691 4666 
z
" transform="scale(0.015625)"/>
      <path id="DejaVuSans-19" d="M 2113 2584 
Q 1688 2584 1439 2293 
Q 1191 2003 1191 1497 
Q 1191 994 1439 701 
Q 1688 409 2113 409 
Q 2538 409 2786 701 
Q 3034 994 3034 1497 
Q 3034 2003 2786 2293 
Q 2538 2584 2113 2584 
z
M 3366 4563 
L 3366 3988 
Q 3128 4100 2886 4159 
Q 2644 4219 2406 4219 
Q 1781 4219 1451 3797 
Q 1122 3375 1075 2522 
Q 1259 2794 1537 2939 
Q 1816 3084 2150 3084 
Q 2853 3084 3261 2657 
Q 3669 2231 3669 1497 
Q 3669 778 3244 343 
Q 2819 -91 2113 -91 
Q 1303 -91 875 529 
Q 447 1150 447 2328 
Q 447 3434 972 4092 
Q 1497 4750 2381 4750 
Q 2619 4750 2861 4703 
Q 3103 4656 3366 4563 
z
" transform="scale(0.015625)"/>
      <path id="DejaVuSans-1b" d="M 2034 2216 
Q 1584 2216 1326 1975 
Q 1069 1734 1069 1313 
Q 1069 891 1326 650 
Q 1584 409 2034 409 
Q 2484 409 2743 651 
Q 3003 894 3003 1313 
Q 3003 1734 2745 1975 
Q 2488 2216 2034 2216 
z
M 1403 2484 
Q 997 2584 770 2862 
Q 544 3141 544 3541 
Q 544 4100 942 4425 
Q 1341 4750 2034 4750 
Q 2731 4750 3128 4425 
Q 3525 4100 3525 3541 
Q 3525 3141 3298 2862 
Q 3072 2584 2669 2484 
Q 3125 2378 3379 2068 
Q 3634 1759 3634 1313 
Q 3634 634 3220 271 
Q 2806 -91 2034 -91 
Q 1263 -91 848 271 
Q 434 634 434 1313 
Q 434 1759 690 2068 
Q 947 2378 1403 2484 
z
M 1172 3481 
Q 1172 3119 1398 2916 
Q 1625 2713 2034 2713 
Q 2441 2713 2670 2916 
Q 2900 3119 2900 3481 
Q 2900 3844 2670 4047 
Q 2441 4250 2034 4250 
Q 1625 4250 1398 4047 
Q 1172 3844 1172 3481 
z
" transform="scale(0.015625)"/>
     </defs>
     <use xlink:href="#DejaVuSans-13"/>
     <use xlink:href="#DejaVuSans-11" transform="translate(63.625 0)"/>
     <use xlink:href="#DejaVuSans-1c" transform="translate(95.40625 0)"/>
     <use xlink:href="#DejaVuSans-18" transform="translate(159.03125 0)"/>
     <use xlink:href="#DejaVuSans-3" transform="translate(222.65625 0)"/>
     <use xlink:href="#DejaVuSans-b" transform="translate(254.4375 0)"/>
     <use xlink:href="#DejaVuSans-13" transform="translate(293.453125 0)"/>
     <use xlink:href="#DejaVuSans-11" transform="translate(357.078125 0)"/>
     <use xlink:href="#DejaVuSans-15" transform="translate(388.859375 0)"/>
     <use xlink:href="#DejaVuSans-14" transform="translate(452.484375 0)"/>
     <use xlink:href="#DejaVuSans-af5" transform="translate(516.109375 0)"/>
     <use xlink:href="#DejaVuSans-14" transform="translate(566.109375 0)"/>
     <use xlink:href="#DejaVuSans-11" transform="translate(629.734375 0)"/>
     <use xlink:href="#DejaVuSans-19" transform="translate(661.515625 0)"/>
     <use xlink:href="#DejaVuSans-1b" transform="translate(725.140625 0)"/>
     <use xlink:href="#DejaVuSans-c" transform="translate(788.765625 0)"/>
    </g>
   </g>
   <g id="text_4">
    <!-- 2.31±107cm -->
    <g style="fill: #2d3748" transform="translate(509.229041 310.408651) rotate(-270) scale(0.065 -0.065)">
     <defs>
      <path id="DejaVuSans-1a" d="M 525 4666 
L 3525 4666 
L 3525 4397 
L 1831 0 
L 1172 0 
L 2766 4134 
L 525 4134 
L 525 4666 
z
" transform="scale(0.015625)"/>
      <path id="DejaVuSans-46" d="M 3122 3366 
L 3122 2828 
Q 2878 2963 2633 3030 
Q 2388 3097 2138 3097 
Q 1578 3097 1268 2742 
Q 959 2388 959 1747 
Q 959 1106 1268 751 
Q 1578 397 2138 397 
Q 2388 397 2633 464 
Q 2878 531 3122 666 
L 3122 134 
Q 2881 22 2623 -34 
Q 2366 -91 2075 -91 
Q 1284 -91 818 406 
Q 353 903 353 1747 
Q 353 2603 823 3093 
Q 1294 3584 2113 3584 
Q 2378 3584 2631 3529 
Q 2884 3475 3122 3366 
z
" transform="scale(0.015625)"/>
     </defs>
     <use xlink:href="#DejaVuSans-15"/>
     <use xlink:href="#DejaVuSans-11" transform="translate(63.625 0)"/>
     <use xlink:href="#DejaVuSans-16" transform="translate(95.40625 0)"/>
     <use xlink:href="#DejaVuSans-14" transform="translate(159.03125 0)"/>
     <use xlink:href="#DejaVuSans-73" transform="translate(222.65625 0)"/>
     <use xlink:href="#DejaVuSans-14" transform="translate(306.453125 0)"/>
     <use xlink:href="#DejaVuSans-13" transform="translate(370.078125 0)"/>
     <use xlink:href="#DejaVuSans-1a" transform="translate(433.703125 0)"/>
     <use xlink:href="#DejaVuSans-46" transform="translate(497.328125 0)"/>
     <use xlink:href="#DejaVuSans-50" transform="translate(552.3125 0)"/>
    </g>
   </g>
   <g id="text_5">
    <!-- 0.91 (0.00–1.88) -->
    <g style="fill: #2d3748" transform="translate(511.297229 454.52601) scale(0.065 -0.065)">
     <use xlink:href="#DejaVuSans-13"/>
     <use xlink:href="#DejaVuSans-11" transform="translate(63.625 0)"/>
     <use xlink:href="#DejaVuSans-1c" transform="translate(95.40625 0)"/>
     <use xlink:href="#DejaVuSans-14" transform="translate(159.03125 0)"/>
     <use xlink:href="#DejaVuSans-3" transform="translate(222.65625 0)"/>
     <use xlink:href="#DejaVuSans-b" transform="translate(254.4375 0)"/>
     <use xlink:href="#DejaVuSans-13" transform="translate(293.453125 0)"/>
     <use xlink:href="#DejaVuSans-11" transform="translate(357.078125 0)"/>
     <use xlink:href="#DejaVuSans-13" transform="translate(388.859375 0)"/>
     <use xlink:href="#DejaVuSans-13" transform="translate(452.484375 0)"/>
     <use xlink:href="#DejaVuSans-af5" transform="translate(516.109375 0)"/>
     <use xlink:href="#DejaVuSans-14" transform="translate(566.109375 0)"/>
     <use xlink:href="#DejaVuSans-11" transform="translate(629.734375 0)"/>
     <use xlink:href="#DejaVuSans-1b" transform="translate(661.515625 0)"/>
     <use xlink:href="#DejaVuSans-1b" transform="translate(725.140625 0)"/>
     <use xlink:href="#DejaVuSans-c" transform="translate(788.765625 0)"/>
    </g>
   </g>
   <g id="text_6">
    <!-- 0.74 (0.00–1.71) -->
    <g style="fill: #2d3748" transform="translate(571.891435 431.802725) scale(0.065 -0.065)">
     <defs>
      <path id="DejaVuSans-17" d="M 2419 4116 
L 825 1625 
L 2419 1625 
L 2419 4116 
z
M 2253 4666 
L 3047 4666 
L 3047 1625 
L 3713 1625 
L 3713 1100 
L 3047 1100 
L 3047 0 
L 2419 0 
L 2419 1100 
L 313 1100 
L 313 1709 
L 2253 4666 
z
" transform="scale(0.015625)"/>
     </defs>
     <use xlink:href="#DejaVuSans-13"/>
     <use xlink:href="#DejaVuSans-11" transform="translate(63.625 0)"/>
     <use xlink:href="#DejaVuSans-1a" transform="translate(95.40625 0)"/>
     <use xlink:href="#DejaVuSans-17" transform="translate(159.03125 0)"/>
     <use xlink:href="#DejaVuSans-3" transform="translate(222.65625 0)"/>
     <use xlink:href="#DejaVuSans-b" transform="translate(254.4375 0)"/>
     <use xlink:href="#DejaVuSans-13" transform="translate(293.453125 0)"/>
     <use xlink:href="#DejaVuSans-11" transform="translate(357.078125 0)"/>
     <use xlink:href="#DejaVuSans-13" transform="translate(388.859375 0)"/>
     <use xlink:href="#DejaVuSans-13" transform="translate(452.484375 0)"/>
     <use xlink:href="#DejaVuSans-af5" transform="translate(516.109375 0)"/>
     <use xlink:href="#DejaVuSans-14" transform="translate(566.109375 0)"/>
     <use xlink:href="#DejaVuSans-11" transform="translate(629.734375 0)"/>
     <use xlink:href="#DejaVuSans-1a" transform="translate(661.515625 0)"/>
     <use xlink:href="#DejaVuSans-14" transform="translate(725.140625 0)"/>
     <use xlink:href="#DejaVuSans-c" transform="translate(788.765625 0)"/>
    </g>
   </g>
   <g id="text_7">
    <!-- 0.60 (0.00–1.56) -->
    <g style="fill: #2d3748" transform="translate(641.698464 421.617219) rotate(-270) scale(0.065 -0.065)">
     <use xlink:href="#DejaVuSans-13"/>
     <use xlink:href="#DejaVuSans-11" transform="translate(63.625 0)"/>
     <use xlink:href="#DejaVuSans-19" transform="translate(95.40625 0)"/>
     <use xlink:href="#DejaVuSans-13" transform="translate(159.03125 0)"/>
     <use xlink:href="#DejaVuSans-3" transform="translate(222.65625 0)"/>
     <use xlink:href="#DejaVuSans-b" transform="translate(254.4375 0)"/>
     <use xlink:href="#DejaVuSans-13" transform="translate(293.453125 0)"/>
     <use xlink:href="#DejaVuSans-11" transform="translate(357.078125 0)"/>
     <use xlink:href="#DejaVuSans-13" transform="translate(388.859375 0)"/>
     <use xlink:href="#DejaVuSans-13" transform="translate(452.484375 0)"/>
     <use xlink:href="#DejaVuSans-af5" transform="translate(516.109375 0)"/>
     <use xlink:href="#DejaVuSans-14" transform="translate(566.109375 0)"/>
     <use xlink:href="#DejaVuSans-11" transform="translate(629.734375 0)"/>
     <use xlink:href="#DejaVuSans-18" transform="translate(661.515625 0)"/>
     <use xlink:href="#DejaVuSans-19" transform="translate(725.140625 0)"/>
     <use xlink:href="#DejaVuSans-c" transform="translate(788.765625 0)"/>
    </g>
   </g>
   <g id="text_8">
    <!-- 1.15 (0.17–2.13) -->
    <g style="fill: #2d3748" transform="translate(707.689063 504.296232) rotate(-90) scale(0.065 -0.065)">
     <use xlink:href="#DejaVuSans-14"/>
     <use xlink:href="#DejaVuSans-11" transform="translate(63.625 0)"/>
     <use xlink:href="#DejaVuSans-14" transform="translate(95.40625 0)"/>
     <use xlink:href="#DejaVuSans-18" transform="translate(159.03125 0)"/>
     <use xlink:href="#DejaVuSans-3" transform="translate(222.65625 0)"/>
     <use xlink:href="#DejaVuSans-b" transform="translate(254.4375 0)"/>
     <use xlink:href="#DejaVuSans-13" transform="translate(293.453125 0)"/>
     <use xlink:href="#DejaVuSans-11" transform="translate(357.078125 0)"/>
     <use xlink:href="#DejaVuSans-14" transform="translate(388.859375 0)"/>
     <use xlink:href="#DejaVuSans-1a" transform="translate(452.484375 0)"/>
     <use xlink:href="#DejaVuSans-af5" transform="translate(516.109375 0)"/>
     <use xlink:href="#DejaVuSans-15" transform="translate(566.109375 0)"/>
     <use xlink:href="#DejaVuSans-11" transform="translate(629.734375 0)"/>
     <use xlink:href="#DejaVuSans-14" transform="translate(661.515625 0)"/>
     <use xlink:href="#DejaVuSans-16" transform="translate(725.140625 0)"/>
     <use xlink:href="#DejaVuSans-c" transform="translate(788.765625 0)"/>
    </g>
   </g>
   <g id="text_9">
    <!-- 2.21±106cm -->
    <g style="fill: #2d3748" transform="translate(719.404769 514.980524) rotate(-270) scale(0.065 -0.065)">
     <use xlink:href="#DejaVuSans-15"/>
     <use xlink:href="#DejaVuSans-11" transform="translate(63.625 0)"/>
     <use xlink:href="#DejaVuSans-15" transform="translate(95.40625 0)"/>
     <use xlink:href="#DejaVuSans-14" transform="translate(159.03125 0)"/>
     <use xlink:href="#DejaVuSans-73" transform="translate(222.65625 0)"/>
     <use xlink:href="#DejaVuSans-14" transform="translate(306.453125 0)"/>
     <use xlink:href="#DejaVuSans-13" transform="translate(370.078125 0)"/>
     <use xlink:href="#DejaVuSans-19" transform="translate(433.703125 0)"/>
     <use xlink:href="#DejaVuSans-46" transform="translate(497.328125 0)"/>
     <use xlink:href="#DejaVuSans-50" transform="translate(552.3125 0)"/>
    </g>
   </g>
   <g id="text_10">
    <!-- 0.92 (0.00–1.90) -->
    <g style="fill: #2d3748" transform="translate(608.281406 530.965395) rotate(-327.265518) scale(0.065 -0.065)">
     <use xlink:href="#DejaVuSans-13"/>
     <use xlink:href="#DejaVuSans-11" transform="translate(63.625 0)"/>
     <use xlink:href="#DejaVuSans-1c" transform="translate(95.40625 0)"/>
     <use xlink:href="#DejaVuSans-15" transform="translate(159.03125 0)"/>
     <use xlink:href="#DejaVuSans-3" transform="translate(222.65625 0)"/>
     <use xlink:href="#DejaVuSans-b" transform="translate(254.4375 0)"/>
     <use xlink:href="#DejaVuSans-13" transform="translate(293.453125 0)"/>
     <use xlink:href="#DejaVuSans-11" transform="translate(357.078125 0)"/>
     <use xlink:href="#DejaVuSans-13" transform="translate(388.859375 0)"/>
     <use xlink:href="#DejaVuSans-13" transform="translate(452.484375 0)"/>
     <use xlink:href="#DejaVuSans-af5" transform="translate(516.109375 0)"/>
     <use xlink:href="#DejaVuSans-14" transform="translate(566.109375 0)"/>
     <use xlink:href="#DejaVuSans-11" transform="translate(629.734375 0)"/>
     <use xlink:href="#DejaVuSans-1c" transform="translate(661.515625 0)"/>
     <use xlink:href="#DejaVuSans-13" transform="translate(725.140625 0)"/>
     <use xlink:href="#DejaVuSans-c" transform="translate(788.765625 0)"/>
    </g>
   </g>
   <g id="text_11">
    <!-- 1.00 (0.03–1.97) -->
    <g style="fill: #2d3748" transform="translate(531.029837 524.894893) scale(0.065 -0.065)">
     <use xlink:href="#DejaVuSans-14"/>
     <use xlink:href="#DejaVuSans-11" transform="translate(63.625 0)"/>
     <use xlink:href="#DejaVuSans-13" transform="translate(95.40625 0)"/>
     <use xlink:href="#DejaVuSans-13" transform="translate(159.03125 0)"/>
     <use xlink:href="#DejaVuSans-3" transform="translate(222.65625 0)"/>
     <use xlink:href="#DejaVuSans-b" transform="translate(254.4375 0)"/>
     <use xlink:href="#DejaVuSans-13" transform="translate(293.453125 0)"/>
     <use xlink:href="#DejaVuSans-11" transform="translate(357.078125 0)"/>
     <use xlink:href="#DejaVuSans-13" transform="translate(388.859375 0)"/>
     <use xlink:href="#DejaVuSans-16" transform="translate(452.484375 0)"/>
     <use xlink:href="#DejaVuSans-af5" transform="translate(516.109375 0)"/>
     <use xlink:href="#DejaVuSans-14" transform="translate(566.109375 0)"/>
     <use xlink:href="#DejaVuSans-11" transform="translate(629.734375 0)"/>
     <use xlink:href="#DejaVuSans-1c" transform="translate(661.515625 0)"/>
     <use xlink:href="#DejaVuSans-1a" transform="translate(725.140625 0)"/>
     <use xlink:href="#DejaVuSans-c" transform="translate(788.765625 0)"/>
    </g>
   </g>
   <g id="text_12">
    <!-- 0.76 (0.00–1.73) -->
    <g style="fill: #2d3748" transform="translate(430.832152 469.285108) rotate(-336.801409) scale(0.065 -0.065)">
     <use xlink:href="#DejaVuSans-13"/>
     <use xlink:href="#DejaVuSans-11" transform="translate(63.625 0)"/>
     <use xlink:href="#DejaVuSans-1a" transform="translate(95.40625 0)"/>
     <use xlink:href="#DejaVuSans-19" transform="translate(159.03125 0)"/>
     <use xlink:href="#DejaVuSans-3" transform="translate(222.65625 0)"/>
     <use xlink:href="#DejaVuSans-b" transform="translate(254.4375 0)"/>
     <use xlink:href="#DejaVuSans-13" transform="translate(293.453125 0)"/>
     <use xlink:href="#DejaVuSans-11" transform="translate(357.078125 0)"/>
     <use xlink:href="#DejaVuSans-13" transform="translate(388.859375 0)"/>
     <use xlink:href="#DejaVuSans-13" transform="translate(452.484375 0)"/>
     <use xlink:href="#DejaVuSans-af5" transform="translate(516.109375 0)"/>
     <use xlink:href="#DejaVuSans-14" transform="translate(566.109375 0)"/>
     <use xlink:href="#DejaVuSans-11" transform="translate(629.734375 0)"/>
     <use xlink:href="#DejaVuSans-1a" transform="translate(661.515625 0)"/>
     <use xlink:href="#DejaVuSans-16" transform="translate(725.140625 0)"/>
     <use xlink:href="#DejaVuSans-c" transform="translate(788.765625 0)"/>
    </g>
   </g>
   <g id="text_13">
    <!-- 0.94 (0.20–1.68) -->
    <g style="fill: #2d3748" transform="translate(428.086025 449.394946) scale(0.065 -0.065)">
     <use xlink:href="#DejaVuSans-13"/>
     <use xlink:href="#DejaVuSans-11" transform="translate(63.625 0)"/>
     <use xlink:href="#DejaVuSans-1c" transform="translate(95.40625 0)"/>
     <use xlink:href="#DejaVuSans-17" transform="translate(159.03125 0)"/>
     <use xlink:href="#DejaVuSans-3" transform="translate(222.65625 0)"/>
     <use xlink:href="#DejaVuSans-b" transform="translate(254.4375 0)"/>
     <use xlink:href="#DejaVuSans-13" transform="translate(293.453125 0)"/>
     <use xlink:href="#DejaVuSans-11" transform="translate(357.078125 0)"/>
     <use xlink:href="#DejaVuSans-15" transform="translate(388.859375 0)"/>
     <use xlink:href="#DejaVuSans-13" transform="translate(452.484375 0)"/>
     <use xlink:href="#DejaVuSans-af5" transform="translate(516.109375 0)"/>
     <use xlink:href="#DejaVuSans-14" transform="translate(566.109375 0)"/>
     <use xlink:href="#DejaVuSans-11" transform="translate(629.734375 0)"/>
     <use xlink:href="#DejaVuSans-19" transform="translate(661.515625 0)"/>
     <use xlink:href="#DejaVuSans-1b" transform="translate(725.140625 0)"/>
     <use xlink:href="#DejaVuSans-c" transform="translate(788.765625 0)"/>
    </g>
   </g>
   <g id="text_14">
    <!-- 1.81±81cm -->
    <g style="fill: #2d3748" transform="translate(540.317714 188.385029) scale(0.065 -0.065)">
     <use xlink:href="#DejaVuSans-14"/>
     <use xlink:href="#DejaVuSans-11" transform="translate(63.625 0)"/>
     <use xlink:href="#DejaVuSans-1b" transform="translate(95.40625 0)"/>
     <use xlink:href="#DejaVuSans-14" transform="translate(159.03125 0)"/>
     <use xlink:href="#DejaVuSans-73" transform="translate(222.65625 0)"/>
     <use xlink:href="#DejaVuSans-1b" transform="translate(306.453125 0)"/>
     <use xlink:href="#DejaVuSans-14" transform="translate(370.078125 0)"/>
     <use xlink:href="#DejaVuSans-46" transform="translate(433.703125 0)"/>
     <use xlink:href="#DejaVuSans-50" transform="translate(488.6875 0)"/>
    </g>
   </g>
   <g id="text_15">
    <!-- 0.69 (0.00–1.65) -->
    <g style="fill: #2d3748" transform="translate(53.166479 447.928927) scale(0.065 -0.065)">
     <use xlink:href="#DejaVuSans-13"/>
     <use xlink:href="#DejaVuSans-11" transform="translate(63.625 0)"/>
     <use xlink:href="#DejaVuSans-19" transform="translate(95.40625 0)"/>
     <use xlink:href="#DejaVuSans-1c" transform="translate(159.03125 0)"/>
     <use xlink:href="#DejaVuSans-3" transform="translate(222.65625 0)"/>
     <use xlink:href="#DejaVuSans-b" transform="translate(254.4375 0)"/>
     <use xlink:href="#DejaVuSans-13" transform="translate(293.453125 0)"/>
     <use xlink:href="#DejaVuSans-11" transform="translate(357.078125 0)"/>
     <use xlink:href="#DejaVuSans-13" transform="translate(388.859375 0)"/>
     <use xlink:href="#DejaVuSans-13" transform="translate(452.484375 0)"/>
     <use xlink:href="#DejaVuSans-af5" transform="translate(516.109375 0)"/>
     <use xlink:href="#DejaVuSans-14" transform="translate(566.109375 0)"/>
     <use xlink:href="#DejaVuSans-11" transform="translate(629.734375 0)"/>
     <use xlink:href="#DejaVuSans-19" transform="translate(661.515625 0)"/>
     <use xlink:href="#DejaVuSans-18" transform="translate(725.140625 0)"/>
     <use xlink:href="#DejaVuSans-c" transform="translate(788.765625 0)"/>
    </g>
   </g>
   <g id="text_16">
    <!-- 1.00 (0.03–1.97) -->
    <g style="fill: #2d3748" transform="translate(199.401814 404.439491) scale(0.065 -0.065)">
     <use xlink:href="#DejaVuSans-14"/>
     <use xlink:href="#DejaVuSans-11" transform="translate(63.625 0)"/>
     <use xlink:href="#DejaVuSans-13" transform="translate(95.40625 0)"/>
     <use xlink:href="#DejaVuSans-13" transform="translate(159.03125 0)"/>
     <use xlink:href="#DejaVuSans-3" transform="translate(222.65625 0)"/>
     <use xlink:href="#DejaVuSans-b" transform="translate(254.4375 0)"/>
     <use xlink:href="#DejaVuSans-13" transform="translate(293.453125 0)"/>
     <use xlink:href="#DejaVuSans-11" transform="translate(357.078125 0)"/>
     <use xlink:href="#DejaVuSans-13" transform="translate(388.859375 0)"/>
     <use xlink:href="#DejaVuSans-16" transform="translate(452.484375 0)"/>
     <use xlink:href="#DejaVuSans-af5" transform="translate(516.109375 0)"/>
     <use xlink:href="#DejaVuSans-14" transform="translate(566.109375 0)"/>
     <use xlink:href="#DejaVuSans-11" transform="translate(629.734375 0)"/>
     <use xlink:href="#DejaVuSans-1c" transform="translate(661.515625 0)"/>
     <use xlink:href="#DejaVuSans-1a" transform="translate(725.140625 0)"/>
     <use xlink:href="#DejaVuSans-c" transform="translate(788.765625 0)"/>
    </g>
   </g>
   <g id="legend_1">
    <g id="line2d_89">
     <path d="M 693.851172 636.222663 
L 700.351172 636.222663 
L 706.851172 636.222663 
" style="fill: none; stroke: #38a169; stroke-width: 1.6; stroke-linecap: square"/>
    </g>
    <g id="text_17">
     <!-- door (width cm) -->
     <g transform="translate(712.051172 638.497663) scale(0.065 -0.065)">
      <use xlink:href="#DejaVuSans-47"/>
      <use xlink:href="#DejaVuSans-52" transform="translate(63.484375 0)"/>
      <use xlink:href="#DejaVuSans-52" transform="translate(124.671875 0)"/>
      <use xlink:href="#DejaVuSans-55" transform="translate(185.859375 0)"/>
      <use xlink:href="#DejaVuSans-3" transform="translate(226.96875 0)"/>
      <use xlink:href="#DejaVuSans-b" transform="translate(258.75 0)"/>
      <use xlink:href="#DejaVuSans-5a" transform="translate(297.765625 0)"/>
      <use xlink:href="#DejaVuSans-4c" transform="translate(379.546875 0)"/>
      <use xlink:href="#DejaVuSans-47" transform="translate(407.328125 0)"/>
      <use xlink:href="#DejaVuSans-57" transform="translate(470.8125 0)"/>
      <use xlink:href="#DejaVuSans-4b" transform="translate(510.015625 0)"/>
      <use xlink:href="#DejaVuSans-3" transform="translate(573.390625 0)"/>
      <use xlink:href="#DejaVuSans-46" transform="translate(605.171875 0)"/>
      <use xlink:href="#DejaVuSans-50" transform="translate(660.15625 0)"/>
      <use xlink:href="#DejaVuSans-c" transform="translate(757.5625 0)"/>
     </g>
    </g>
    <g id="line2d_90">
     <path d="M 693.851172 645.97317 
L 700.351172 645.97317 
L 706.851172 645.97317 
" style="fill: none; stroke-dasharray: 5.92,2.56; stroke-dashoffset: 0; stroke: #3182ce; stroke-width: 1.6"/>
    </g>
    <g id="text_18">
     <!-- window (width cm) -->
     <g transform="translate(712.051172 648.24817) scale(0.065 -0.065)">
      <use xlink:href="#DejaVuSans-5a"/>
      <use xlink:href="#DejaVuSans-4c" transform="translate(81.78125 0)"/>
      <use xlink:href="#DejaVuSans-51" transform="translate(109.5625 0)"/>
      <use xlink:href="#DejaVuSans-47" transform="translate(172.9375 0)"/>
      <use xlink:href="#DejaVuSans-52" transform="translate(236.421875 0)"/>
      <use xlink:href="#DejaVuSans-5a" transform="translate(297.609375 0)"/>
      <use xlink:href="#DejaVuSans-3" transform="translate(379.390625 0)"/>
      <use xlink:href="#DejaVuSans-b" transform="translate(411.171875 0)"/>
      <use xlink:href="#DejaVuSans-5a" transform="translate(450.1875 0)"/>
      <use xlink:href="#DejaVuSans-4c" transform="translate(531.96875 0)"/>
      <use xlink:href="#DejaVuSans-47" transform="translate(559.75 0)"/>
      <use xlink:href="#DejaVuSans-57" transform="translate(623.234375 0)"/>
      <use xlink:href="#DejaVuSans-4b" transform="translate(662.4375 0)"/>
      <use xlink:href="#DejaVuSans-3" transform="translate(725.8125 0)"/>
      <use xlink:href="#DejaVuSans-46" transform="translate(757.59375 0)"/>
      <use xlink:href="#DejaVuSans-50" transform="translate(812.578125 0)"/>
      <use xlink:href="#DejaVuSans-c" transform="translate(909.984375 0)"/>
     </g>
    </g>
    <g id="line2d_91">
     <path d="M 693.851172 655.723678 
L 700.351172 655.723678 
L 706.851172 655.723678 
" style="fill: none; stroke: #d69e2e; stroke-width: 1.6; stroke-linecap: square"/>
    </g>
    <g id="text_19">
     <!-- opening (width cm) -->
     <g transform="translate(712.051172 657.998678) scale(0.065 -0.065)">
      <use xlink:href="#DejaVuSans-52"/>
      <use xlink:href="#DejaVuSans-53" transform="translate(61.1875 0)"/>
      <use xlink:href="#DejaVuSans-48" transform="translate(124.671875 0)"/>
      <use xlink:href="#DejaVuSans-51" transform="translate(186.203125 0)"/>
      <use xlink:href="#DejaVuSans-4c" transform="translate(249.578125 0)"/>
      <use xlink:href="#DejaVuSans-51" transform="translate(277.359375 0)"/>
      <use xlink:href="#DejaVuSans-4a" transform="translate(340.734375 0)"/>
      <use xlink:href="#DejaVuSans-3" transform="translate(404.21875 0)"/>
      <use xlink:href="#DejaVuSans-b" transform="translate(436 0)"/>
      <use xlink:href="#DejaVuSans-5a" transform="translate(475.015625 0)"/>
      <use xlink:href="#DejaVuSans-4c" transform="translate(556.796875 0)"/>
      <use xlink:href="#DejaVuSans-47" transform="translate(584.578125 0)"/>
      <use xlink:href="#DejaVuSans-57" transform="translate(648.0625 0)"/>
      <use xlink:href="#DejaVuSans-4b" transform="translate(687.265625 0)"/>
      <use xlink:href="#DejaVuSans-3" transform="translate(750.640625 0)"/>
      <use xlink:href="#DejaVuSans-46" transform="translate(782.421875 0)"/>
      <use xlink:href="#DejaVuSans-50" transform="translate(837.40625 0)"/>
      <use xlink:href="#DejaVuSans-c" transform="translate(934.8125 0)"/>
     </g>
    </g>
   </g>
   <g id="text_20">
    <!-- Room 1 -->
    <g style="fill: #1a202c" transform="translate(531.852997 486.705911) scale(0.06 -0.06)">
     <defs>
      <path id="DejaVuSans-Bold-35" d="M 2297 2597 
Q 2675 2597 2839 2737 
Q 3003 2878 3003 3200 
Q 3003 3519 2839 3656 
Q 2675 3794 2297 3794 
L 1791 3794 
L 1791 2597 
L 2297 2597 
z
M 1791 1766 
L 1791 0 
L 588 0 
L 588 4666 
L 2425 4666 
Q 3347 4666 3776 4356 
Q 4206 4047 4206 3378 
Q 4206 2916 3982 2619 
Q 3759 2322 3309 2181 
Q 3556 2125 3751 1926 
Q 3947 1728 4147 1325 
L 4800 0 
L 3519 0 
L 2950 1159 
Q 2778 1509 2601 1637 
Q 2425 1766 2131 1766 
L 1791 1766 
z
" transform="scale(0.015625)"/>
      <path id="DejaVuSans-Bold-52" d="M 2203 2784 
Q 1831 2784 1636 2517 
Q 1441 2250 1441 1747 
Q 1441 1244 1636 976 
Q 1831 709 2203 709 
Q 2569 709 2762 976 
Q 2956 1244 2956 1747 
Q 2956 2250 2762 2517 
Q 2569 2784 2203 2784 
z
M 2203 3584 
Q 3106 3584 3614 3096 
Q 4122 2609 4122 1747 
Q 4122 884 3614 396 
Q 3106 -91 2203 -91 
Q 1297 -91 786 396 
Q 275 884 275 1747 
Q 275 2609 786 3096 
Q 1297 3584 2203 3584 
z
" transform="scale(0.015625)"/>
      <path id="DejaVuSans-Bold-50" d="M 3781 2919 
Q 3994 3244 4286 3414 
Q 4578 3584 4928 3584 
Q 5531 3584 5847 3212 
Q 6163 2841 6163 2131 
L 6163 0 
L 5038 0 
L 5038 1825 
Q 5041 1866 5042 1909 
Q 5044 1953 5044 2034 
Q 5044 2406 4934 2573 
Q 4825 2741 4581 2741 
Q 4263 2741 4089 2478 
Q 3916 2216 3909 1719 
L 3909 0 
L 2784 0 
L 2784 1825 
Q 2784 2406 2684 2573 
Q 2584 2741 2328 2741 
Q 2006 2741 1831 2477 
Q 1656 2213 1656 1722 
L 1656 0 
L 531 0 
L 531 3500 
L 1656 3500 
L 1656 2988 
Q 1863 3284 2130 3434 
Q 2397 3584 2719 3584 
Q 3081 3584 3359 3409 
Q 3638 3234 3781 2919 
z
" transform="scale(0.015625)"/>
      <path id="DejaVuSans-Bold-3" transform="scale(0.015625)"/>
      <path id="DejaVuSans-Bold-14" d="M 750 831 
L 1813 831 
L 1813 3847 
L 722 3622 
L 722 4441 
L 1806 4666 
L 2950 4666 
L 2950 831 
L 4013 831 
L 4013 0 
L 750 0 
L 750 831 
z
" transform="scale(0.015625)"/>
     </defs>
     <use xlink:href="#DejaVuSans-Bold-35"/>
     <use xlink:href="#DejaVuSans-Bold-52" transform="translate(77 0)"/>
     <use xlink:href="#DejaVuSans-Bold-52" transform="translate(145.703125 0)"/>
     <use xlink:href="#DejaVuSans-Bold-50" transform="translate(214.40625 0)"/>
     <use xlink:href="#DejaVuSans-Bold-3" transform="translate(318.609375 0)"/>
     <use xlink:href="#DejaVuSans-Bold-14" transform="translate(353.421875 0)"/>
    </g>
    <!-- 8.9m² · h &gt; 2.41 m -->
    <g style="fill: #1a202c" transform="translate(513.250185 494.598255) scale(0.06 -0.06)">
     <defs>
      <path id="DejaVuSans-Bold-1b" d="M 2228 2088 
Q 1891 2088 1709 1903 
Q 1528 1719 1528 1375 
Q 1528 1031 1709 848 
Q 1891 666 2228 666 
Q 2563 666 2741 848 
Q 2919 1031 2919 1375 
Q 2919 1722 2741 1905 
Q 2563 2088 2228 2088 
z
M 1350 2484 
Q 925 2613 709 2878 
Q 494 3144 494 3541 
Q 494 4131 934 4440 
Q 1375 4750 2228 4750 
Q 3075 4750 3515 4442 
Q 3956 4134 3956 3541 
Q 3956 3144 3739 2878 
Q 3522 2613 3097 2484 
Q 3572 2353 3814 2058 
Q 4056 1763 4056 1313 
Q 4056 619 3595 264 
Q 3134 -91 2228 -91 
Q 1319 -91 855 264 
Q 391 619 391 1313 
Q 391 1763 633 2058 
Q 875 2353 1350 2484 
z
M 1631 3419 
Q 1631 3141 1786 2991 
Q 1941 2841 2228 2841 
Q 2509 2841 2662 2991 
Q 2816 3141 2816 3419 
Q 2816 3697 2662 3845 
Q 2509 3994 2228 3994 
Q 1941 3994 1786 3844 
Q 1631 3694 1631 3419 
z
" transform="scale(0.015625)"/>
      <path id="DejaVuSans-Bold-11" d="M 653 1209 
L 1778 1209 
L 1778 0 
L 653 0 
L 653 1209 
z
" transform="scale(0.015625)"/>
      <path id="DejaVuSans-Bold-1c" d="M 641 103 
L 641 966 
Q 928 831 1190 764 
Q 1453 697 1709 697 
Q 2247 697 2547 995 
Q 2847 1294 2900 1881 
Q 2688 1725 2447 1647 
Q 2206 1569 1925 1569 
Q 1209 1569 770 1986 
Q 331 2403 331 3084 
Q 331 3838 820 4291 
Q 1309 4744 2131 4744 
Q 3044 4744 3544 4128 
Q 4044 3513 4044 2388 
Q 4044 1231 3459 570 
Q 2875 -91 1856 -91 
Q 1528 -91 1228 -42 
Q 928 6 641 103 
z
M 2125 2350 
Q 2441 2350 2600 2554 
Q 2759 2759 2759 3169 
Q 2759 3575 2600 3781 
Q 2441 3988 2125 3988 
Q 1809 3988 1650 3781 
Q 1491 3575 1491 3169 
Q 1491 2759 1650 2554 
Q 1809 2350 2125 2350 
z
" transform="scale(0.015625)"/>
      <path id="DejaVuSans-Bold-74" d="M 1288 2613 
L 2444 2613 
L 2444 2088 
L 341 2088 
L 341 2566 
L 1319 3397 
Q 1509 3563 1590 3688 
Q 1672 3813 1672 3938 
Q 1672 4094 1558 4191 
Q 1444 4288 1259 4288 
Q 1066 4288 844 4217 
Q 622 4147 359 4000 
L 359 4581 
Q 631 4666 886 4708 
Q 1141 4750 1375 4750 
Q 1869 4750 2150 4548 
Q 2431 4347 2431 4000 
Q 2431 3775 2320 3586 
Q 2209 3397 1894 3128 
L 1288 2613 
z
" transform="scale(0.015625)"/>
      <path id="DejaVuSans-Bold-79" d="M 653 2828 
L 1778 2828 
L 1778 1619 
L 653 1619 
L 653 2828 
z
" transform="scale(0.015625)"/>
      <path id="DejaVuSans-Bold-4b" d="M 4056 2131 
L 4056 0 
L 2931 0 
L 2931 347 
L 2931 1625 
Q 2931 2084 2911 2256 
Q 2891 2428 2841 2509 
Q 2775 2619 2662 2680 
Q 2550 2741 2406 2741 
Q 2056 2741 1856 2470 
Q 1656 2200 1656 1722 
L 1656 0 
L 538 0 
L 538 4863 
L 1656 4863 
L 1656 2988 
Q 1909 3294 2193 3439 
Q 2478 3584 2822 3584 
Q 3428 3584 3742 3212 
Q 4056 2841 4056 2131 
z
" transform="scale(0.015625)"/>
      <path id="DejaVuSans-Bold-21" d="M 678 3041 
L 678 3822 
L 4684 2375 
L 4684 1638 
L 678 191 
L 678 972 
L 3694 2003 
L 678 3041 
z
" transform="scale(0.015625)"/>
      <path id="DejaVuSans-Bold-15" d="M 1844 884 
L 3897 884 
L 3897 0 
L 506 0 
L 506 884 
L 2209 2388 
Q 2438 2594 2547 2791 
Q 2656 2988 2656 3200 
Q 2656 3528 2436 3728 
Q 2216 3928 1850 3928 
Q 1569 3928 1234 3808 
Q 900 3688 519 3450 
L 519 4475 
Q 925 4609 1322 4679 
Q 1719 4750 2100 4750 
Q 2938 4750 3402 4381 
Q 3866 4013 3866 3353 
Q 3866 2972 3669 2642 
Q 3472 2313 2841 1759 
L 1844 884 
z
" transform="scale(0.015625)"/>
      <path id="DejaVuSans-Bold-17" d="M 2356 3675 
L 1038 1722 
L 2356 1722 
L 2356 3675 
z
M 2156 4666 
L 3494 4666 
L 3494 1722 
L 4159 1722 
L 4159 850 
L 3494 850 
L 3494 0 
L 2356 0 
L 2356 850 
L 288 850 
L 288 1881 
L 2156 4666 
z
" transform="scale(0.015625)"/>
     </defs>
     <use xlink:href="#DejaVuSans-Bold-1b"/>
     <use xlink:href="#DejaVuSans-Bold-11" transform="translate(69.578125 0)"/>
     <use xlink:href="#DejaVuSans-Bold-1c" transform="translate(107.5625 0)"/>
     <use xlink:href="#DejaVuSans-Bold-50" transform="translate(177.140625 0)"/>
     <use xlink:href="#DejaVuSans-Bold-74" transform="translate(281.34375 0)"/>
     <use xlink:href="#DejaVuSans-Bold-3" transform="translate(325.140625 0)"/>
     <use xlink:href="#DejaVuSans-Bold-79" transform="translate(359.953125 0)"/>
     <use xlink:href="#DejaVuSans-Bold-3" transform="translate(397.9375 0)"/>
     <use xlink:href="#DejaVuSans-Bold-4b" transform="translate(432.75 0)"/>
     <use xlink:href="#DejaVuSans-Bold-3" transform="translate(503.9375 0)"/>
     <use xlink:href="#DejaVuSans-Bold-21" transform="translate(538.75 0)"/>
     <use xlink:href="#DejaVuSans-Bold-3" transform="translate(622.546875 0)"/>
     <use xlink:href="#DejaVuSans-Bold-15" transform="translate(657.359375 0)"/>
     <use xlink:href="#DejaVuSans-Bold-11" transform="translate(726.9375 0)"/>
     <use xlink:href="#DejaVuSans-Bold-17" transform="translate(764.921875 0)"/>
     <use xlink:href="#DejaVuSans-Bold-14" transform="translate(834.5 0)"/>
     <use xlink:href="#DejaVuSans-Bold-3" transform="translate(904.078125 0)"/>
     <use xlink:href="#DejaVuSans-Bold-50" transform="translate(938.890625 0)"/>
    </g>
   </g>
   <g id="text_21">
    <!-- 132 -->
    <g style="fill: #3182ce" transform="translate(534.988823 369.786934) scale(0.055 -0.055)">
     <use xlink:href="#DejaVuSans-14"/>
     <use xlink:href="#DejaVuSans-16" transform="translate(63.625 0)"/>
     <use xlink:href="#DejaVuSans-15" transform="translate(127.25 0)"/>
    </g>
   </g>
   <g id="text_22">
    <!-- 47 -->
    <g style="fill: #3182ce" transform="translate(536.73851 265.608001) scale(0.055 -0.055)">
     <use xlink:href="#DejaVuSans-17"/>
     <use xlink:href="#DejaVuSans-1a" transform="translate(63.625 0)"/>
    </g>
   </g>
   <g id="text_23">
    <!-- 91 -->
    <g style="fill: #3182ce" transform="translate(534.862007 424.945876) scale(0.055 -0.055)">
     <use xlink:href="#DejaVuSans-1c"/>
     <use xlink:href="#DejaVuSans-14" transform="translate(63.625 0)"/>
    </g>
   </g>
   <g id="text_24">
    <!-- Room 2 -->
    <g style="fill: #1a202c" transform="translate(139.220053 500.078224) scale(0.075 -0.075)">
     <use xlink:href="#DejaVuSans-Bold-35"/>
     <use xlink:href="#DejaVuSans-Bold-52" transform="translate(77 0)"/>
     <use xlink:href="#DejaVuSans-Bold-52" transform="translate(145.703125 0)"/>
     <use xlink:href="#DejaVuSans-Bold-50" transform="translate(214.40625 0)"/>
     <use xlink:href="#DejaVuSans-Bold-3" transform="translate(318.609375 0)"/>
     <use xlink:href="#DejaVuSans-Bold-15" transform="translate(353.421875 0)"/>
    </g>
    <!-- 4.4m² · h &gt; 1.64 m -->
    <g style="fill: #1a202c" transform="translate(115.966538 509.894435) scale(0.075 -0.075)">
     <defs>
      <path id="DejaVuSans-Bold-19" d="M 2316 2303 
Q 2000 2303 1842 2098 
Q 1684 1894 1684 1484 
Q 1684 1075 1842 870 
Q 2000 666 2316 666 
Q 2634 666 2792 870 
Q 2950 1075 2950 1484 
Q 2950 1894 2792 2098 
Q 2634 2303 2316 2303 
z
M 3803 4544 
L 3803 3681 
Q 3506 3822 3243 3889 
Q 2981 3956 2731 3956 
Q 2194 3956 1894 3657 
Q 1594 3359 1544 2772 
Q 1750 2925 1990 3001 
Q 2231 3078 2516 3078 
Q 3231 3078 3670 2659 
Q 4109 2241 4109 1563 
Q 4109 813 3618 361 
Q 3128 -91 2303 -91 
Q 1394 -91 895 523 
Q 397 1138 397 2266 
Q 397 3422 980 4083 
Q 1563 4744 2578 4744 
Q 2900 4744 3203 4694 
Q 3506 4644 3803 4544 
z
" transform="scale(0.015625)"/>
     </defs>
     <use xlink:href="#DejaVuSans-Bold-17"/>
     <use xlink:href="#DejaVuSans-Bold-11" transform="translate(69.578125 0)"/>
     <use xlink:href="#DejaVuSans-Bold-17" transform="translate(107.5625 0)"/>
     <use xlink:href="#DejaVuSans-Bold-50" transform="translate(177.140625 0)"/>
     <use xlink:href="#DejaVuSans-Bold-74" transform="translate(281.34375 0)"/>
     <use xlink:href="#DejaVuSans-Bold-3" transform="translate(325.140625 0)"/>
     <use xlink:href="#DejaVuSans-Bold-79" transform="translate(359.953125 0)"/>
     <use xlink:href="#DejaVuSans-Bold-3" transform="translate(397.9375 0)"/>
     <use xlink:href="#DejaVuSans-Bold-4b" transform="translate(432.75 0)"/>
     <use xlink:href="#DejaVuSans-Bold-3" transform="translate(503.9375 0)"/>
     <use xlink:href="#DejaVuSans-Bold-21" transform="translate(538.75 0)"/>
     <use xlink:href="#DejaVuSans-Bold-3" transform="translate(622.546875 0)"/>
     <use xlink:href="#DejaVuSans-Bold-14" transform="translate(657.359375 0)"/>
     <use xlink:href="#DejaVuSans-Bold-11" transform="translate(726.9375 0)"/>
     <use xlink:href="#DejaVuSans-Bold-19" transform="translate(764.921875 0)"/>
     <use xlink:href="#DejaVuSans-Bold-17" transform="translate(834.5 0)"/>
     <use xlink:href="#DejaVuSans-Bold-3" transform="translate(904.078125 0)"/>
     <use xlink:href="#DejaVuSans-Bold-50" transform="translate(938.890625 0)"/>
    </g>
   </g>
   <g id="text_25">
    <!-- 56 -->
    <g style="fill: #3182ce" transform="translate(148.038392 430.80995) scale(0.055 -0.055)">
     <use xlink:href="#DejaVuSans-18"/>
     <use xlink:href="#DejaVuSans-19" transform="translate(63.625 0)"/>
    </g>
   </g>
  </g>
 </g>
 <defs>
  <clipPath id="p64882b325f">
   <rect x="10.8" y="126.589798" width="770.4" height="538.820403"/>
  </clipPath>
 </defs>
</svg>
